<svg width="20" height="42" viewBox="0 0 20 42" fill="none" xmlns="http://www.w3.org/2000/svg">
<g filter="url(#filter0_i_432_2624)">
<path d="M6.5317 38.6796C6.56073 38.3192 6.57531 37.9951 6.52747 37.7762C6.20268 36.2867 5.05766 35.4345 3.95056 34.5801C2.54944 33.4986 1.77399 32.429 1.46334 30.5677C1.31254 29.6638 1.31823 28.7125 0.695911 28C0.505293 27.7818 0.283902 27.5897 0.1366 27.3351C-0.266658 26.6374 0.335968 25.5445 0.493917 24.8418C0.94122 22.853 0.723621 20.6952 1.24195 18.7392C1.71171 16.9667 2.94672 15.5209 3.9335 14.0595C5.26184 12.0923 6.48372 10.0457 7.69641 7.99479C8.22072 7.10804 8.65913 6.28256 9.03686 5.3168C9.33132 4.56421 9.6392 3.67385 10.3137 3.21815C11.2274 2.60097 12.3065 2.49038 13.3016 2.10049C13.8509 1.88529 13.9916 1.76276 14.27 1.2582C14.5027 0.836589 14.5127 0.318838 14.9962 0.103003C16.0731 -0.377519 16.6801 0.95079 17.4474 1.46289C18.2141 1.97467 19.37 2.01111 19.8328 2.9588C20.504 4.33314 18.9634 4.22412 18.5761 5.15406C18.1991 6.05981 18.5228 7.16208 18.6923 8.07851C18.9079 9.24455 18.3739 9.98144 17.9492 11.0443C17.3249 12.6071 16.666 14.0374 16.3604 15.7163C15.958 17.928 15.6245 20.1679 15.0042 22.3134C14.2521 24.9163 13.4902 27.2374 12.1776 29.6021C11.5586 30.7173 10.6708 31.5217 10.0244 32.6175C9.20283 34.0105 8.52626 35.8861 8.45509 37.5451C8.40696 38.6661 8.75743 40.7203 7.24838 41.0316C7.24809 41.0316 7.2478 41.0316 7.24765 41.0318C6.21522 41.2443 6.4423 39.7898 6.5317 38.6796Z" fill="url(#paint0_linear_432_2624)"/>
</g>
<defs>
<filter id="filter0_i_432_2624" x="0" y="0" width="20" height="45.0527" filterUnits="userSpaceOnUse" color-interpolation-filters="sRGB">
<feFlood flood-opacity="0" result="BackgroundImageFix"/>
<feBlend mode="normal" in="SourceGraphic" in2="BackgroundImageFix" result="shape"/>
<feColorMatrix in="SourceAlpha" type="matrix" values="0 0 0 0 0 0 0 0 0 0 0 0 0 0 0 0 0 0 127 0" result="hardAlpha"/>
<feOffset dy="4"/>
<feGaussianBlur stdDeviation="2"/>
<feComposite in2="hardAlpha" operator="arithmetic" k2="-1" k3="1"/>
<feColorMatrix type="matrix" values="0 0 0 0 0 0 0 0 0 0 0 0 0 0 0 0 0 0 0.25 0"/>
<feBlend mode="normal" in2="shape" result="effect1_innerShadow_432_2624"/>
</filter>
<linearGradient id="paint0_linear_432_2624" x1="10" y1="0" x2="10" y2="41.0526" gradientUnits="userSpaceOnUse">
<stop stop-color="#0D2562"/>
<stop offset="1" stop-color="#0D2562" stop-opacity="0.2"/>
</linearGradient>
</defs>
</svg>
