<svg width="30" height="32" viewBox="0 0 30 32" fill="none" xmlns="http://www.w3.org/2000/svg">
<g filter="url(#filter0_d_432_2596)">
<path fill-rule="evenodd" clip-rule="evenodd" d="M21.404 26.3508V23.1312C21.404 21.8416 22.4852 20.7862 23.8062 20.7862H27.1447L27.21 20.7228V9.52237H2.78922V24.8369C2.78922 25.7013 3.51644 26.4121 4.40323 26.4121H21.3415L21.404 26.3508ZM22.3749 0C22.8229 0 23.1898 0.358819 23.1898 0.796293V3.05732C23.1898 3.49453 22.8229 3.85256 22.3749 3.85256C21.927 3.85256 21.5596 3.49453 21.5596 3.05732V0.796293C21.5596 0.359082 21.9264 0 22.3749 0ZM7.62534 0C8.07332 0 8.44016 0.358819 8.44016 0.796293V3.05732C8.44016 3.49453 8.07332 3.85256 7.62534 3.85256C7.17736 3.85256 6.80997 3.49453 6.80997 3.05732V0.796293C6.80997 0.359082 7.17682 0 7.62534 0ZM4.40297 1.80725H6.28383V3.05732C6.28383 3.77838 6.88652 4.36659 7.62534 4.36659C8.36415 4.36659 8.96631 3.77838 8.96631 3.05732V1.80725H21.0334V3.05732C21.0334 3.77838 21.6356 4.36659 22.3749 4.36659C23.1143 4.36659 23.7159 3.77838 23.7159 3.05732V1.80725H25.5973C26.9189 1.80725 28 2.86266 28 4.15219V21.0424L21.6671 27.1818H4.40323C3.08167 27.1818 2 26.1272 2 24.8369V4.15219C2 2.86266 3.08113 1.80725 4.40297 1.80725Z" fill="#0D2562"/>
<path fill-rule="evenodd" clip-rule="evenodd" d="M15 23.3999C18.3505 23.3999 21.0667 20.6838 21.0667 17.3333C21.0667 13.9827 18.3505 11.2666 15 11.2666C11.6495 11.2666 8.93335 13.9827 8.93335 17.3333C8.93335 20.6838 11.6495 23.3999 15 23.3999ZM14.3259 18.1711V22.1602C13.1007 21.9907 12.0211 21.3658 11.2634 20.4618L14.3259 18.1711ZM14.3259 16.5016V12.5063C11.9535 12.8345 10.1267 14.8705 10.1267 17.3333C10.1267 18.0428 10.2783 18.717 10.551 19.3251L14.3259 16.5016ZM15.674 22.1602C18.0464 21.832 19.8731 19.7959 19.8731 17.3333C19.8731 14.8706 18.0464 12.8345 15.674 12.5063V22.1602Z" fill="#0D2562"/>
</g>
<defs>
<filter id="filter0_d_432_2596" x="0" y="0" width="30" height="31.1819" filterUnits="userSpaceOnUse" color-interpolation-filters="sRGB">
<feFlood flood-opacity="0" result="BackgroundImageFix"/>
<feColorMatrix in="SourceAlpha" type="matrix" values="0 0 0 0 0 0 0 0 0 0 0 0 0 0 0 0 0 0 127 0" result="hardAlpha"/>
<feOffset dy="2"/>
<feGaussianBlur stdDeviation="1"/>
<feComposite in2="hardAlpha" operator="out"/>
<feColorMatrix type="matrix" values="0 0 0 0 0 0 0 0 0 0 0 0 0 0 0 0 0 0 0.25 0"/>
<feBlend mode="normal" in2="BackgroundImageFix" result="effect1_dropShadow_432_2596"/>
<feBlend mode="normal" in="SourceGraphic" in2="effect1_dropShadow_432_2596" result="shape"/>
</filter>
</defs>
</svg>
