<svg width="82" height="65" viewBox="0 0 82 65" fill="none" xmlns="http://www.w3.org/2000/svg">
<g filter="url(#filter0_d_432_2638)">
<g filter="url(#filter1_d_432_2638)">
<path d="M10.16 36.6L8.888 38.448C7.904 37.584 5.84 36.456 4.184 35.784L5.36 34.08C7.016 34.704 9.128 35.736 10.16 36.6ZM9.008 43.08L7.784 44.976C6.8 44.112 4.736 42.984 3.056 42.312L4.184 40.608C5.84 41.184 7.952 42.24 9.008 43.08ZM5.456 55.656L3.632 54.096C5.024 52.272 6.992 49.224 8.552 46.512L10.112 48.048C8.744 50.544 6.992 53.4 5.456 55.656ZM18.752 52.824H24.872V54.936H10.136V52.824H16.472V46.056H11.528V43.944H16.472V37.8H11.192V35.712H24.512V37.8H18.752V43.944H24.248V46.056H18.752V52.824ZM44.648 42.288L46.424 42.648C45.848 44.832 44.96 46.728 43.856 48.336C44.264 49.368 44.792 50.016 45.416 50.136C45.704 50.232 45.92 49.248 46.064 47.76C46.424 48.12 47.096 48.6 47.48 48.816C47.144 51.552 46.136 52.488 44.744 51.936C43.856 51.696 43.136 51 42.56 49.944C41.72 50.856 40.76 51.672 39.704 52.344C39.464 52.008 38.816 51.288 38.456 50.976C39.104 50.592 39.728 50.16 40.304 49.68C37.952 50.064 35.528 50.52 33.608 50.856L33.368 49.176C35.12 48.936 37.736 48.528 40.328 48.12L40.376 49.608C40.904 49.152 41.384 48.648 41.816 48.096C41.24 46.272 40.88 43.944 40.64 41.4H33.608V39.744H40.496C40.448 38.976 40.4 38.208 40.352 37.44H42.2C42.224 38.208 42.272 39 42.32 39.744H45.704C45.224 39.192 44.192 38.52 43.328 38.088L44.36 37.056C45.224 37.464 46.28 38.112 46.808 38.64L45.752 39.744H47.216V41.4H42.464C42.632 43.128 42.872 44.76 43.16 46.104C43.808 44.952 44.288 43.68 44.648 42.288ZM38.096 46.008V43.944H35.84V46.008H38.096ZM34.352 42.672H39.656V47.28H34.352V42.672ZM32.504 52.896H48.2V36.936H32.504V52.896ZM30.392 34.92H50.408V55.968H48.2V54.912H32.504V55.968H30.392V34.92ZM68 37.128H63.032C62.48 37.848 61.856 38.568 61.208 39.264H66.416C66.968 38.64 67.544 37.872 68 37.128ZM72.896 43.464V41.16H67.832V43.464H72.896ZM72.896 47.568V45.216H67.832V47.568H72.896ZM60.92 45.216V47.568H65.672V45.216H60.92ZM60.92 41.16V43.464H65.672V41.16H60.92ZM58.76 49.44V41.52C58.352 41.856 57.92 42.192 57.464 42.504C57.104 41.952 56.384 41.16 55.856 40.8C59.024 38.784 61.304 36 62.552 33.744L65.024 34.248C64.808 34.608 64.568 34.992 64.328 35.352H69.248L69.584 35.232L71.144 36.192C70.664 37.176 69.896 38.304 69.152 39.264H75.152V49.44H58.76ZM57.752 55.944L55.712 54.792C57.032 53.808 58.304 52.032 59.024 50.256L61.16 50.856C60.416 52.752 59.168 54.744 57.752 55.944ZM63.008 50.952L65.144 50.784C65.48 52.248 65.744 54.192 65.768 55.344L63.488 55.608C63.488 54.432 63.296 52.464 63.008 50.952ZM67.688 51.024L69.728 50.568C70.424 51.984 71.168 53.856 71.456 55.056L69.296 55.584C69.056 54.408 68.36 52.464 67.688 51.024ZM72.296 50.88L74.336 50.016C75.656 51.48 77.264 53.496 77.96 54.912L75.776 55.896C75.152 54.552 73.64 52.416 72.296 50.88Z" fill="#FEFBF3"/>
</g>
<g filter="url(#filter2_d_432_2638)">
<mask id="path-2-outside-1_432_2638" maskUnits="userSpaceOnUse" x="4" y="3" width="40" height="20" fill="black">
<rect fill="white" x="4" y="3" width="40" height="20"/>
<path d="M19.6 16.842C19.6 17.5167 19.4973 18.1327 19.292 18.69C19.1013 19.2327 18.7567 19.702 18.258 20.098C17.7593 20.4793 17.0847 20.78 16.234 21C15.3833 21.22 14.3053 21.33 13 21.33C11.6947 21.33 10.6167 21.22 9.766 21C8.91533 20.78 8.24067 20.4793 7.742 20.098C7.24333 19.702 6.89133 19.2327 6.686 18.69C6.49533 18.1327 6.4 17.5167 6.4 16.842V9.34C6.4 8.66533 6.49533 8.05667 6.686 7.514C6.89133 6.95667 7.24333 6.48 7.742 6.084C8.24067 5.688 8.91533 5.38 9.766 5.16C10.6167 4.94 11.6947 4.83 13 4.83C14.3053 4.83 15.3833 4.94 16.234 5.16C17.0847 5.38 17.7593 5.688 18.258 6.084C18.7567 6.48 19.1013 6.95667 19.292 7.514C19.4973 8.05667 19.6 8.66533 19.6 9.34V16.842ZM11.372 16.05C11.372 16.3433 11.4747 16.5927 11.68 16.798C11.9 16.9887 12.34 17.084 13 17.084C13.66 17.084 14.1 16.9887 14.32 16.798C14.54 16.5927 14.65 16.3433 14.65 16.05V10.132C14.65 9.85333 14.54 9.61867 14.32 9.428C14.1 9.22267 13.66 9.12 13 9.12C12.34 9.12 11.9 9.22267 11.68 9.428C11.4747 9.61867 11.372 9.85333 11.372 10.132V16.05ZM29.192 16.842H35.946C36.298 16.842 36.5253 16.776 36.628 16.644C36.7307 16.512 36.782 16.358 36.782 16.182V15.588C36.782 15.412 36.7307 15.2653 36.628 15.148C36.5253 15.016 36.298 14.95 35.946 14.95H30.974C30.6953 14.95 30.49 14.8913 30.358 14.774C30.2407 14.642 30.182 14.4367 30.182 14.158V11.804C30.182 11.5253 30.2407 11.3273 30.358 11.21C30.49 11.078 30.6953 11.012 30.974 11.012H34.516C34.868 11.012 35.0953 10.946 35.198 10.814C35.3007 10.682 35.352 10.528 35.352 10.352V10.022C35.352 9.846 35.3007 9.692 35.198 9.56C35.0953 9.428 34.868 9.362 34.516 9.362H29.192C28.9133 9.362 28.708 9.30333 28.576 9.186C28.4587 9.054 28.4 8.84867 28.4 8.57V5.952C28.4 5.67333 28.4587 5.47533 28.576 5.358C28.708 5.226 28.9133 5.16 29.192 5.16H36.562C37.7793 5.16 38.6813 5.446 39.268 6.018C39.8693 6.57533 40.17 7.338 40.17 8.306V9.582C40.17 10.1393 40.0747 10.6233 39.884 11.034C39.6933 11.4447 39.356 11.7527 38.872 11.958C39.9133 12.0753 40.632 12.398 41.028 12.926C41.4387 13.4393 41.644 14.18 41.644 15.148V17.348C41.644 18.4773 41.2847 19.372 40.566 20.032C39.8473 20.6773 38.784 21 37.376 21H29.192C28.9133 21 28.708 20.9413 28.576 20.824C28.4587 20.692 28.4 20.4867 28.4 20.208V17.634C28.4 17.3553 28.4587 17.1573 28.576 17.04C28.708 16.908 28.9133 16.842 29.192 16.842Z"/>
</mask>
<path d="M19.292 18.69L17.7907 18.1369L17.7865 18.1482L17.7825 18.1596L19.292 18.69ZM18.258 20.098L19.2299 21.369L19.2415 21.3601L19.253 21.351L18.258 20.098ZM16.234 21L15.8334 19.451L15.8334 19.451L16.234 21ZM7.742 20.098L6.74699 21.351L6.75845 21.3601L6.77008 21.369L7.742 20.098ZM6.686 18.69L5.17214 19.2079L5.18045 19.2322L5.18954 19.2562L6.686 18.69ZM6.686 7.514L5.18465 6.96087L5.18047 6.97222L5.17646 6.98362L6.686 7.514ZM7.742 6.084L6.74699 4.83102L6.74699 4.83102L7.742 6.084ZM16.234 5.16L15.8334 6.70903L16.234 5.16ZM18.258 6.084L17.263 7.33698L17.263 7.33698L18.258 6.084ZM19.292 7.514L17.7781 8.0319L17.7865 8.0562L17.7955 8.08023L19.292 7.514ZM11.68 16.798L10.5486 17.9294L10.589 17.9697L10.6321 18.0071L11.68 16.798ZM14.32 16.798L15.3679 18.0071L15.3902 17.9878L15.4117 17.9677L14.32 16.798ZM14.32 9.428L13.2283 10.5977L13.2498 10.6178L13.2721 10.6371L14.32 9.428ZM11.68 9.428L12.7687 10.6005L12.7717 10.5977L11.68 9.428ZM18 16.842C18 17.3533 17.9225 17.779 17.7907 18.1369L20.7934 19.2431C21.0722 18.4863 21.2 17.68 21.2 16.842H18ZM17.7825 18.1596C17.7023 18.3878 17.5516 18.6158 17.263 18.845L19.253 21.351C19.9617 20.7882 20.5004 20.0775 20.8015 19.2204L17.7825 18.1596ZM17.2861 18.827C17.0108 19.0375 16.5539 19.2646 15.8334 19.451L16.6346 22.549C17.6154 22.2954 18.5079 21.9211 19.2299 21.369L17.2861 18.827ZM15.8334 19.451C15.1602 19.6251 14.2288 19.73 13 19.73V22.93C14.3818 22.93 15.6064 22.8149 16.6346 22.549L15.8334 19.451ZM13 19.73C11.7712 19.73 10.8398 19.6251 10.1666 19.451L9.36539 22.549C10.3936 22.8149 11.6182 22.93 13 22.93V19.73ZM10.1666 19.451C9.44608 19.2646 8.9892 19.0375 8.71392 18.827L6.77008 21.369C7.49213 21.9211 8.38459 22.2954 9.36539 22.549L10.1666 19.451ZM8.73701 18.845C8.44166 18.6105 8.27585 18.3706 8.18246 18.1238L5.18954 19.2562C5.50682 20.0947 6.045 20.7935 6.74699 21.351L8.73701 18.845ZM8.19986 18.1721C8.07385 17.8038 8 17.3657 8 16.842H4.8C4.8 17.6677 4.91682 18.4616 5.17214 19.2079L8.19986 18.1721ZM8 16.842V9.34H4.8V16.842H8ZM8 9.34C8 8.81542 8.0741 8.39001 8.19554 8.04438L5.17646 6.98362C4.91657 7.72332 4.8 8.51525 4.8 9.34H8ZM8.18735 8.06713C8.28392 7.80501 8.45088 7.5642 8.73701 7.33698L6.74699 4.83102C6.03579 5.3958 5.49875 6.10832 5.18465 6.96087L8.18735 8.06713ZM8.73701 7.33698C9.00725 7.12238 9.45546 6.89295 10.1666 6.70903L9.36539 3.61096C8.37521 3.86704 7.47408 4.25362 6.74699 4.83102L8.73701 7.33698ZM10.1666 6.70903C10.8398 6.53495 11.7712 6.43 13 6.43V3.23C11.6182 3.23 10.3936 3.34505 9.36539 3.61096L10.1666 6.70903ZM13 6.43C14.2288 6.43 15.1602 6.53495 15.8334 6.70903L16.6346 3.61096C15.6064 3.34505 14.3818 3.23 13 3.23V6.43ZM15.8334 6.70903C16.5445 6.89295 16.9928 7.12238 17.263 7.33698L19.253 4.83102C18.5259 4.25362 17.6248 3.86704 16.6346 3.61096L15.8334 6.70903ZM17.263 7.33698C17.5422 7.5587 17.6946 7.7877 17.7781 8.0319L20.8059 6.9961C20.5081 6.12563 19.9711 5.4013 19.253 4.83102L17.263 7.33698ZM17.7955 8.08023C17.9222 8.4151 18 8.82781 18 9.34H21.2C21.2 8.50285 21.0724 7.69823 20.7885 6.94777L17.7955 8.08023ZM18 9.34V16.842H21.2V9.34H18ZM9.772 16.05C9.772 16.7628 10.0398 17.4206 10.5486 17.9294L12.8114 15.6666C12.8465 15.7017 12.8934 15.7625 12.9285 15.8478C12.9635 15.9328 12.972 16.0062 12.972 16.05H9.772ZM10.6321 18.0071C11.0264 18.3488 11.4844 18.5 11.8362 18.5762C12.2059 18.6563 12.6036 18.684 13 18.684V15.484C12.7364 15.484 12.5841 15.464 12.5138 15.4488C12.4816 15.4418 12.4888 15.4405 12.5224 15.455C12.5558 15.4695 12.6346 15.5081 12.7279 15.5889L10.6321 18.0071ZM13 18.684C13.3964 18.684 13.7941 18.6563 14.1638 18.5762C14.5156 18.5 14.9736 18.3488 15.3679 18.0071L13.2721 15.5889C13.3654 15.5081 13.4442 15.4695 13.4776 15.455C13.5112 15.4405 13.5184 15.4418 13.4862 15.4488C13.4159 15.464 13.2636 15.484 13 15.484V18.684ZM15.4117 17.9677C15.9464 17.4686 16.25 16.7997 16.25 16.05H13.05C13.05 15.9915 13.0622 15.9052 13.1036 15.8112C13.1447 15.7181 13.1967 15.6578 13.2283 15.6283L15.4117 17.9677ZM16.25 16.05V10.132H13.05V16.05H16.25ZM16.25 10.132C16.25 9.36615 15.9207 8.69796 15.3679 8.2189L13.2721 10.6371C13.2338 10.6039 13.1699 10.5352 13.1188 10.4261C13.0668 10.3152 13.05 10.2094 13.05 10.132H16.25ZM15.4117 8.25831C15.0195 7.89228 14.5547 7.72428 14.1886 7.63885C13.8085 7.55018 13.4018 7.52 13 7.52V10.72C13.1246 10.72 13.2254 10.7249 13.3051 10.7323C13.3855 10.7398 13.4357 10.7491 13.4614 10.7551C13.4882 10.7614 13.4755 10.7611 13.4371 10.7431C13.3983 10.725 13.3187 10.6821 13.2283 10.5977L15.4117 8.25831ZM13 7.52C12.5982 7.52 12.1915 7.55018 11.8114 7.63885C11.4453 7.72428 10.9805 7.89228 10.5883 8.25831L12.7717 10.5977C12.6813 10.6821 12.6017 10.725 12.5629 10.7431C12.5245 10.7611 12.5118 10.7614 12.5386 10.7551C12.5643 10.7491 12.6145 10.7398 12.6949 10.7323C12.7746 10.7249 12.8754 10.72 13 10.72V7.52ZM10.5913 8.25553C10.062 8.74703 9.772 9.40563 9.772 10.132H12.972C12.972 10.1938 12.9595 10.2862 12.9149 10.3883C12.8703 10.4902 12.8116 10.5606 12.7687 10.6005L10.5913 8.25553ZM9.772 10.132V16.05H12.972V10.132H9.772ZM36.628 16.644L35.365 15.6617L35.365 15.6617L36.628 16.644ZM36.628 15.148L35.365 16.1303L35.3934 16.1668L35.4239 16.2016L36.628 15.148ZM30.358 14.774L29.1621 15.837L29.2247 15.9073L29.295 15.9699L30.358 14.774ZM30.358 11.21L29.2266 10.0786L29.2266 10.0786L30.358 11.21ZM35.198 10.814L33.935 9.83169L33.935 9.8317L35.198 10.814ZM35.198 9.56L33.935 10.5423L33.935 10.5423L35.198 9.56ZM28.576 9.186L27.3801 10.249L27.4427 10.3193L27.513 10.3819L28.576 9.186ZM28.576 5.358L27.4446 4.22663L27.4446 4.22663L28.576 5.358ZM39.268 6.018L38.151 7.1636L38.1655 7.17773L38.1804 7.19149L39.268 6.018ZM39.884 11.034L41.3352 11.7078V11.7078L39.884 11.034ZM38.872 11.958L38.2471 10.4851L32.6361 12.8655L38.6929 13.5479L38.872 11.958ZM41.028 12.926L39.748 13.886L39.763 13.906L39.7786 13.9255L41.028 12.926ZM40.566 20.032L41.635 21.2225L41.6417 21.2165L41.6482 21.2104L40.566 20.032ZM28.576 20.824L27.3801 21.887L27.4427 21.9573L27.513 22.0199L28.576 20.824ZM29.192 18.442H35.946V15.242H29.192V18.442ZM35.946 18.442C36.2071 18.442 36.516 18.4192 36.8266 18.3291C37.1339 18.2398 37.5625 18.0487 37.891 17.6263L35.365 15.6617C35.5909 15.3713 35.8545 15.2792 35.9344 15.2559C36.0177 15.2318 36.0369 15.242 35.946 15.242V18.442ZM37.891 17.6263C38.2241 17.198 38.382 16.6938 38.382 16.182H35.182C35.182 16.1125 35.1925 16.0229 35.2256 15.9235C35.259 15.8233 35.3084 15.7345 35.365 15.6617L37.891 17.6263ZM38.382 16.182V15.588H35.182V16.182H38.382ZM38.382 15.588C38.382 15.0778 38.2231 14.5412 37.8321 14.0944L35.4239 16.2016C35.341 16.1069 35.2754 15.9949 35.2333 15.8746C35.1922 15.7571 35.182 15.6564 35.182 15.588H38.382ZM37.891 14.1657C37.5625 13.7433 37.1339 13.5522 36.8266 13.4629C36.516 13.3728 36.2071 13.35 35.946 13.35V16.55C36.0369 16.55 36.0177 16.5602 35.9344 16.5361C35.8545 16.5128 35.5909 16.4207 35.365 16.1303L37.891 14.1657ZM35.946 13.35H30.974V16.55H35.946V13.35ZM30.974 13.35C30.9408 13.35 30.9744 13.3458 31.0506 13.3676C31.1312 13.3906 31.2739 13.4474 31.421 13.5781L29.295 15.9699C29.8485 16.4619 30.519 16.55 30.974 16.55V13.35ZM31.5539 13.711C31.6846 13.8581 31.7414 14.0008 31.7644 14.0814C31.7862 14.1576 31.782 14.1912 31.782 14.158H28.582C28.582 14.613 28.6701 15.2834 29.1621 15.837L31.5539 13.711ZM31.782 14.158V11.804H28.582V14.158H31.782ZM31.782 11.804C31.782 11.7686 31.7867 11.8112 31.7601 11.901C31.7319 11.9961 31.6599 12.1708 31.4894 12.3414L29.2266 10.0786C28.6603 10.645 28.582 11.3727 28.582 11.804H31.782ZM31.4894 12.3414C31.2012 12.6295 30.9126 12.612 30.974 12.612V9.412C30.478 9.412 29.7788 9.52647 29.2266 10.0786L31.4894 12.3414ZM30.974 12.612H34.516V9.412H30.974V12.612ZM34.516 12.612C34.7771 12.612 35.086 12.5892 35.3966 12.4991C35.7039 12.4098 36.1325 12.2187 36.461 11.7963L33.935 9.8317C34.1609 9.54133 34.4245 9.44915 34.5044 9.42595C34.5877 9.40177 34.6069 9.412 34.516 9.412V12.612ZM36.461 11.7963C36.7941 11.368 36.952 10.8638 36.952 10.352H33.752C33.752 10.2825 33.7625 10.1929 33.7956 10.0935C33.829 9.99326 33.8784 9.90449 33.935 9.83169L36.461 11.7963ZM36.952 10.352V10.022H33.752V10.352H36.952ZM36.952 10.022C36.952 9.51023 36.7941 9.00596 36.461 8.57769L33.935 10.5423C33.8784 10.4695 33.829 10.3807 33.7956 10.2805C33.7625 10.1811 33.752 10.0915 33.752 10.022H36.952ZM36.461 8.5777C36.1325 8.15533 35.7039 7.96415 35.3966 7.87495C35.086 7.78477 34.7771 7.762 34.516 7.762V10.962C34.6069 10.962 34.5877 10.9722 34.5044 10.9481C34.4245 10.9248 34.1609 10.8327 33.935 10.5423L36.461 8.5777ZM34.516 7.762H29.192V10.962H34.516V7.762ZM29.192 7.762C29.1588 7.762 29.1924 7.75781 29.2686 7.77956C29.3492 7.80261 29.4919 7.85939 29.639 7.99014L27.513 10.3819C28.0666 10.8739 28.737 10.962 29.192 10.962V7.762ZM29.7719 8.12302C29.9026 8.27011 29.9594 8.41278 29.9824 8.49345C30.0042 8.56956 30 8.60321 30 8.57H26.8C26.8 9.02503 26.8881 9.69545 27.3801 10.249L29.7719 8.12302ZM30 8.57V5.952H26.8V8.57H30ZM30 5.952C30 5.91662 30.0047 5.95923 29.9781 6.04904C29.9499 6.14415 29.8779 6.31881 29.7074 6.48937L27.4446 4.22663C26.8783 4.79301 26.8 5.52067 26.8 5.952H30ZM29.7074 6.48937C29.4192 6.77753 29.1306 6.76 29.192 6.76V3.56C28.696 3.56 27.9968 3.67447 27.4446 4.22663L29.7074 6.48937ZM29.192 6.76H36.562V3.56H29.192V6.76ZM36.562 6.76C37.5623 6.76 37.9811 6.99792 38.151 7.1636L40.385 4.8724C39.3816 3.89408 37.9964 3.56 36.562 3.56V6.76ZM38.1804 7.19149C38.3959 7.3912 38.57 7.69581 38.57 8.306H41.77C41.77 6.98019 41.3428 5.75946 40.3556 4.84451L38.1804 7.19149ZM38.57 8.306V9.582H41.77V8.306H38.57ZM38.57 9.582C38.57 9.9591 38.5055 10.2036 38.4328 10.3602L41.3352 11.7078C41.6438 11.0431 41.77 10.3196 41.77 9.582H38.57ZM38.4328 10.3602C38.4275 10.3715 38.4227 10.379 38.4092 10.3914C38.3927 10.4064 38.3472 10.4426 38.2471 10.4851L39.4969 13.4309C40.2832 13.0974 40.951 12.5353 41.3352 11.7078L38.4328 10.3602ZM38.6929 13.5479C39.547 13.6442 39.7371 13.8715 39.748 13.886L42.308 11.966C41.5269 10.9245 40.2797 10.5065 39.0511 10.3681L38.6929 13.5479ZM39.7786 13.9255C39.8769 14.0483 40.044 14.3777 40.044 15.148H43.244C43.244 13.9823 43.0005 12.8303 42.2774 11.9265L39.7786 13.9255ZM40.044 15.148V17.348H43.244V15.148H40.044ZM40.044 17.348C40.044 18.1067 39.8195 18.5452 39.4838 18.8536L41.6482 21.2104C42.7498 20.1988 43.244 18.8479 43.244 17.348H40.044ZM39.497 18.8415C39.1817 19.1247 38.5671 19.4 37.376 19.4V22.6C39.0009 22.6 40.513 22.23 41.635 21.2225L39.497 18.8415ZM37.376 19.4H29.192V22.6H37.376V19.4ZM29.192 19.4C29.1588 19.4 29.1924 19.3958 29.2686 19.4176C29.3492 19.4406 29.4919 19.4974 29.639 19.6281L27.513 22.0199C28.0666 22.5119 28.737 22.6 29.192 22.6V19.4ZM29.7719 19.761C29.9026 19.9081 29.9594 20.0508 29.9824 20.1314C30.0042 20.2076 30 20.2412 30 20.208H26.8C26.8 20.663 26.8881 21.3335 27.3801 21.887L29.7719 19.761ZM30 20.208V17.634H26.8V20.208H30ZM30 17.634C30 17.5986 30.0047 17.6412 29.9781 17.731C29.9499 17.8261 29.8779 18.0008 29.7074 18.1714L27.4446 15.9086C26.8783 16.475 26.8 17.2027 26.8 17.634H30ZM29.7074 18.1714C29.4192 18.4595 29.1306 18.442 29.192 18.442V15.242C28.696 15.242 27.9968 15.3565 27.4446 15.9086L29.7074 18.1714Z" fill="#FEFBF3" mask="url(#path-2-outside-1_432_2638)"/>
</g>
</g>
<defs>
<filter id="filter0_d_432_2638" x="0.0559082" y="4.83008" width="80.9041" height="60.1379" filterUnits="userSpaceOnUse" color-interpolation-filters="sRGB">
<feFlood flood-opacity="0" result="BackgroundImageFix"/>
<feColorMatrix in="SourceAlpha" type="matrix" values="0 0 0 0 0 0 0 0 0 0 0 0 0 0 0 0 0 0 127 0" result="hardAlpha"/>
<feOffset dy="6"/>
<feGaussianBlur stdDeviation="1.5"/>
<feComposite in2="hardAlpha" operator="out"/>
<feColorMatrix type="matrix" values="0 0 0 0 0 0 0 0 0 0 0 0 0 0 0 0 0 0 0.25 0"/>
<feBlend mode="normal" in2="BackgroundImageFix" result="effect1_dropShadow_432_2638"/>
<feBlend mode="normal" in="SourceGraphic" in2="effect1_dropShadow_432_2638" result="shape"/>
</filter>
<filter id="filter1_d_432_2638" x="3.05591" y="33.7439" width="78.9041" height="26.2241" filterUnits="userSpaceOnUse" color-interpolation-filters="sRGB">
<feFlood flood-opacity="0" result="BackgroundImageFix"/>
<feColorMatrix in="SourceAlpha" type="matrix" values="0 0 0 0 0 0 0 0 0 0 0 0 0 0 0 0 0 0 127 0" result="hardAlpha"/>
<feOffset dx="2" dy="2"/>
<feGaussianBlur stdDeviation="1"/>
<feComposite in2="hardAlpha" operator="out"/>
<feColorMatrix type="matrix" values="0 0 0 0 0.0527083 0 0 0 0 0.145283 0 0 0 0 0.383333 0 0 0 0.8 0"/>
<feBlend mode="normal" in2="BackgroundImageFix" result="effect1_dropShadow_432_2638"/>
<feBlend mode="normal" in="SourceGraphic" in2="effect1_dropShadow_432_2638" result="shape"/>
</filter>
<filter id="filter2_d_432_2638" x="6.3999" y="4.83008" width="39.2441" height="20.5" filterUnits="userSpaceOnUse" color-interpolation-filters="sRGB">
<feFlood flood-opacity="0" result="BackgroundImageFix"/>
<feColorMatrix in="SourceAlpha" type="matrix" values="0 0 0 0 0 0 0 0 0 0 0 0 0 0 0 0 0 0 127 0" result="hardAlpha"/>
<feOffset dx="2" dy="2"/>
<feGaussianBlur stdDeviation="1"/>
<feComposite in2="hardAlpha" operator="out"/>
<feColorMatrix type="matrix" values="0 0 0 0 0.0527083 0 0 0 0 0.145283 0 0 0 0 0.383333 0 0 0 1 0"/>
<feBlend mode="normal" in2="BackgroundImageFix" result="effect1_dropShadow_432_2638"/>
<feBlend mode="normal" in="SourceGraphic" in2="effect1_dropShadow_432_2638" result="shape"/>
</filter>
</defs>
</svg>
