<svg width="99" height="54" viewBox="0 0 99 54" fill="none" xmlns="http://www.w3.org/2000/svg">
<path d="M19.8 8.1001H32.4001V16.2001H19.8V8.1001Z" fill="#FEFBF3"/>
<path d="M50.8001 32.492C51.1201 32.492 51.4161 32.5347 51.6881 32.62C51.9654 32.7 52.2028 32.8253 52.4001 32.996C52.5974 33.1667 52.7521 33.3827 52.8641 33.644C52.9761 33.9 53.0321 34.2067 53.0321 34.564C53.0321 34.9053 52.9841 35.204 52.8881 35.46C52.7921 35.716 52.6561 35.932 52.4801 36.108C52.3041 36.2787 52.0908 36.4067 51.8401 36.492C51.5948 36.5773 51.3201 36.62 51.0161 36.62C50.7868 36.62 50.5734 36.5853 50.3761 36.516V37.844C50.3228 37.86 50.2374 37.876 50.1201 37.892C50.0028 37.9133 49.8828 37.924 49.7601 37.924C49.6428 37.924 49.5361 37.916 49.4401 37.9C49.3494 37.884 49.2721 37.852 49.2081 37.804C49.1441 37.756 49.0961 37.6893 49.0641 37.604C49.0321 37.524 49.0161 37.4173 49.0161 37.284V33.444C49.0161 33.3 49.0454 33.1827 49.1041 33.092C49.1681 33.0013 49.2534 32.9187 49.3601 32.844C49.5254 32.7373 49.7308 32.652 49.9761 32.588C50.2214 32.524 50.4961 32.492 50.8001 32.492ZM50.8161 35.548C51.3654 35.548 51.6401 35.22 51.6401 34.564C51.6401 34.2227 51.5708 33.9693 51.4321 33.804C51.2988 33.6387 51.1041 33.556 50.8481 33.556C50.7468 33.556 50.6561 33.5693 50.5761 33.596C50.4961 33.6173 50.4268 33.644 50.3681 33.676V35.436C50.4321 35.468 50.5014 35.4947 50.5761 35.516C50.6508 35.5373 50.7308 35.548 50.8161 35.548ZM55.4558 36.492C55.4025 36.508 55.3171 36.524 55.1998 36.54C55.0878 36.556 54.9705 36.564 54.8478 36.564C54.7305 36.564 54.6238 36.556 54.5278 36.54C54.4371 36.524 54.3598 36.492 54.2958 36.444C54.2318 36.396 54.1811 36.332 54.1438 36.252C54.1118 36.1667 54.0958 36.0573 54.0958 35.924V33.524C54.0958 33.4013 54.1171 33.2973 54.1598 33.212C54.2078 33.1213 54.2745 33.0413 54.3598 32.972C54.4451 32.9027 54.5491 32.8413 54.6718 32.788C54.7998 32.7293 54.9358 32.6787 55.0798 32.636C55.2238 32.5933 55.3731 32.5613 55.5278 32.54C55.6825 32.5133 55.8371 32.5 55.9918 32.5C56.2478 32.5 56.4505 32.5507 56.5998 32.652C56.7491 32.748 56.8238 32.908 56.8238 33.132C56.8238 33.2067 56.8131 33.2813 56.7918 33.356C56.7705 33.4253 56.7438 33.4893 56.7118 33.548C56.5998 33.548 56.4851 33.5533 56.3678 33.564C56.2505 33.5747 56.1358 33.5907 56.0238 33.612C55.9118 33.6333 55.8051 33.6573 55.7038 33.684C55.6078 33.7053 55.5251 33.732 55.4558 33.764V36.492ZM59.6924 36.628C59.3777 36.628 59.0844 36.5853 58.8124 36.5C58.5457 36.4093 58.3111 36.276 58.1084 36.1C57.9111 35.924 57.7537 35.7027 57.6364 35.436C57.5244 35.1693 57.4684 34.8573 57.4684 34.5C57.4684 34.148 57.5244 33.8467 57.6364 33.596C57.7537 33.34 57.9057 33.132 58.0924 32.972C58.2791 32.8067 58.4924 32.6867 58.7324 32.612C58.9724 32.532 59.2177 32.492 59.4684 32.492C59.7511 32.492 60.0071 32.5347 60.2364 32.62C60.4711 32.7053 60.6711 32.8227 60.8364 32.972C61.0071 33.1213 61.1377 33.3 61.2284 33.508C61.3244 33.716 61.3724 33.9427 61.3724 34.188C61.3724 34.3693 61.3217 34.508 61.2204 34.604C61.1191 34.7 60.9777 34.7613 60.7964 34.788L58.8204 35.084C58.8791 35.26 58.9991 35.3933 59.1804 35.484C59.3617 35.5693 59.5697 35.612 59.8044 35.612C60.0231 35.612 60.2284 35.5853 60.4204 35.532C60.6177 35.4733 60.7777 35.4067 60.9004 35.332C60.9857 35.3853 61.0577 35.46 61.1164 35.556C61.1751 35.652 61.2044 35.7533 61.2044 35.86C61.2044 36.1 61.0924 36.2787 60.8684 36.396C60.6977 36.4867 60.5057 36.548 60.2924 36.58C60.0791 36.612 59.8791 36.628 59.6924 36.628ZM59.4684 33.484C59.3404 33.484 59.2284 33.5053 59.1324 33.548C59.0417 33.5907 58.9671 33.6467 58.9084 33.716C58.8497 33.78 58.8044 33.8547 58.7724 33.94C58.7457 34.02 58.7297 34.1027 58.7244 34.188L60.0924 33.964C60.0764 33.8573 60.0177 33.7507 59.9164 33.644C59.8151 33.5373 59.6657 33.484 59.4684 33.484ZM65.707 35.34C65.707 35.7453 65.555 36.0627 65.251 36.292C64.947 36.5213 64.499 36.636 63.907 36.636C63.683 36.636 63.475 36.62 63.283 36.588C63.091 36.556 62.9257 36.508 62.787 36.444C62.6537 36.3747 62.547 36.2893 62.467 36.188C62.3924 36.0867 62.355 35.9667 62.355 35.828C62.355 35.7 62.3817 35.5933 62.435 35.508C62.4884 35.4173 62.5524 35.3427 62.627 35.284C62.7817 35.3693 62.9577 35.4467 63.155 35.516C63.3577 35.58 63.5897 35.612 63.851 35.612C64.0164 35.612 64.1417 35.588 64.227 35.54C64.3177 35.492 64.363 35.428 64.363 35.348C64.363 35.2733 64.331 35.2147 64.267 35.172C64.203 35.1293 64.0964 35.0947 63.947 35.068L63.707 35.02C63.243 34.9293 62.8964 34.788 62.667 34.596C62.443 34.3987 62.331 34.1187 62.331 33.756C62.331 33.5587 62.3737 33.38 62.459 33.22C62.5444 33.06 62.6644 32.9267 62.819 32.82C62.9737 32.7133 63.1577 32.6307 63.371 32.572C63.5897 32.5133 63.8297 32.484 64.091 32.484C64.2884 32.484 64.4724 32.5 64.643 32.532C64.819 32.5587 64.971 32.6013 65.099 32.66C65.227 32.7187 65.3284 32.796 65.403 32.892C65.4777 32.9827 65.515 33.092 65.515 33.22C65.515 33.3427 65.491 33.4493 65.443 33.54C65.4004 33.6253 65.3444 33.6973 65.275 33.756C65.2324 33.7293 65.1684 33.7027 65.083 33.676C64.9977 33.644 64.9044 33.6173 64.803 33.596C64.7017 33.5693 64.5977 33.548 64.491 33.532C64.3897 33.516 64.2964 33.508 64.211 33.508C64.035 33.508 63.899 33.5293 63.803 33.572C63.707 33.6093 63.659 33.6707 63.659 33.756C63.659 33.8147 63.6857 33.8627 63.739 33.9C63.7924 33.9373 63.8937 33.972 64.043 34.004L64.291 34.06C64.803 34.1773 65.1657 34.34 65.379 34.548C65.5977 34.7507 65.707 35.0147 65.707 35.34ZM66.7325 31.532C66.7325 31.3293 66.7992 31.1587 66.9325 31.02C67.0712 30.8813 67.2525 30.812 67.4765 30.812C67.7005 30.812 67.8792 30.8813 68.0125 31.02C68.1512 31.1587 68.2205 31.3293 68.2205 31.532C68.2205 31.7347 68.1512 31.9053 68.0125 32.044C67.8792 32.1827 67.7005 32.252 67.4765 32.252C67.2525 32.252 67.0712 32.1827 66.9325 32.044C66.7992 31.9053 66.7325 31.7347 66.7325 31.532ZM68.1565 36.492C68.0979 36.5027 68.0099 36.516 67.8925 36.532C67.7805 36.5533 67.6659 36.564 67.5485 36.564C67.4312 36.564 67.3245 36.556 67.2285 36.54C67.1379 36.524 67.0605 36.492 66.9965 36.444C66.9325 36.396 66.8819 36.332 66.8445 36.252C66.8125 36.1667 66.7965 36.0573 66.7965 35.924V32.668C66.8552 32.6573 66.9405 32.644 67.0525 32.628C67.1699 32.6067 67.2872 32.596 67.4045 32.596C67.5219 32.596 67.6259 32.604 67.7165 32.62C67.8125 32.636 67.8925 32.668 67.9565 32.716C68.0205 32.764 68.0685 32.8307 68.1005 32.916C68.1379 32.996 68.1565 33.1027 68.1565 33.236V36.492ZM69.2543 34.556C69.2543 34.204 69.3077 33.9 69.4143 33.644C69.521 33.3827 69.6677 33.1667 69.8543 32.996C70.0463 32.8253 70.2677 32.7 70.5183 32.62C70.7743 32.5347 71.049 32.492 71.3423 32.492C71.449 32.492 71.553 32.5027 71.6543 32.524C71.7557 32.54 71.8383 32.5613 71.9023 32.588V31.292C71.9557 31.276 72.041 31.26 72.1583 31.244C72.2757 31.2227 72.3957 31.212 72.5183 31.212C72.6357 31.212 72.7397 31.22 72.8303 31.236C72.9263 31.252 73.0063 31.284 73.0703 31.332C73.1343 31.38 73.1823 31.4467 73.2143 31.532C73.2463 31.612 73.2623 31.7187 73.2623 31.852V35.644C73.2623 35.8947 73.145 36.0947 72.9103 36.244C72.7557 36.3453 72.5557 36.4333 72.3103 36.508C72.065 36.588 71.7823 36.628 71.4623 36.628C71.1157 36.628 70.8037 36.58 70.5263 36.484C70.2543 36.388 70.0223 36.2493 69.8303 36.068C69.6437 35.8867 69.4997 35.6707 69.3983 35.42C69.3023 35.164 69.2543 34.876 69.2543 34.556ZM71.5263 33.556C71.2383 33.556 71.017 33.6387 70.8623 33.804C70.7077 33.9693 70.6303 34.22 70.6303 34.556C70.6303 34.8867 70.7023 35.1373 70.8463 35.308C70.9903 35.4733 71.1983 35.556 71.4703 35.556C71.5663 35.556 71.6517 35.5427 71.7263 35.516C71.8063 35.484 71.8677 35.4493 71.9103 35.412V33.652C71.8037 33.588 71.6757 33.556 71.5263 33.556ZM76.5658 36.628C76.2512 36.628 75.9578 36.5853 75.6858 36.5C75.4192 36.4093 75.1845 36.276 74.9818 36.1C74.7845 35.924 74.6272 35.7027 74.5098 35.436C74.3978 35.1693 74.3418 34.8573 74.3418 34.5C74.3418 34.148 74.3978 33.8467 74.5098 33.596C74.6272 33.34 74.7792 33.132 74.9658 32.972C75.1525 32.8067 75.3658 32.6867 75.6058 32.612C75.8458 32.532 76.0912 32.492 76.3418 32.492C76.6245 32.492 76.8805 32.5347 77.1098 32.62C77.3445 32.7053 77.5445 32.8227 77.7098 32.972C77.8805 33.1213 78.0112 33.3 78.1018 33.508C78.1978 33.716 78.2458 33.9427 78.2458 34.188C78.2458 34.3693 78.1952 34.508 78.0938 34.604C77.9925 34.7 77.8512 34.7613 77.6698 34.788L75.6938 35.084C75.7525 35.26 75.8725 35.3933 76.0538 35.484C76.2352 35.5693 76.4432 35.612 76.6778 35.612C76.8965 35.612 77.1018 35.5853 77.2938 35.532C77.4912 35.4733 77.6512 35.4067 77.7738 35.332C77.8592 35.3853 77.9312 35.46 77.9898 35.556C78.0485 35.652 78.0778 35.7533 78.0778 35.86C78.0778 36.1 77.9658 36.2787 77.7418 36.396C77.5712 36.4867 77.3792 36.548 77.1658 36.58C76.9525 36.612 76.7525 36.628 76.5658 36.628ZM76.3418 33.484C76.2138 33.484 76.1018 33.5053 76.0058 33.548C75.9152 33.5907 75.8405 33.6467 75.7818 33.716C75.7232 33.78 75.6778 33.8547 75.6458 33.94C75.6192 34.02 75.6032 34.1027 75.5978 34.188L76.9658 33.964C76.9498 33.8573 76.8912 33.7507 76.7898 33.644C76.6885 33.5373 76.5392 33.484 76.3418 33.484ZM81.7645 34.036C81.7645 33.8707 81.7165 33.7507 81.6205 33.676C81.5298 33.596 81.4045 33.556 81.2445 33.556C81.1378 33.556 81.0311 33.5693 80.9245 33.596C80.8231 33.6227 80.7351 33.6627 80.6605 33.716V36.492C80.6071 36.508 80.5218 36.524 80.4045 36.54C80.2925 36.556 80.1751 36.564 80.0525 36.564C79.9351 36.564 79.8285 36.556 79.7325 36.54C79.6418 36.524 79.5645 36.492 79.5005 36.444C79.4365 36.396 79.3858 36.332 79.3485 36.252C79.3165 36.1667 79.3005 36.0573 79.3005 35.924V33.524C79.3005 33.38 79.3298 33.2627 79.3885 33.172C79.4525 33.0813 79.5378 32.9987 79.6445 32.924C79.8258 32.796 80.0525 32.692 80.3245 32.612C80.6018 32.532 80.9085 32.492 81.2445 32.492C81.8471 32.492 82.3111 32.6253 82.6365 32.892C82.9618 33.1533 83.1245 33.5187 83.1245 33.988V36.492C83.0711 36.508 82.9858 36.524 82.8685 36.54C82.7565 36.556 82.6391 36.564 82.5165 36.564C82.3991 36.564 82.2925 36.556 82.1965 36.54C82.1058 36.524 82.0285 36.492 81.9645 36.444C81.9005 36.396 81.8498 36.332 81.8125 36.252C81.7805 36.1667 81.7645 36.0573 81.7645 35.924V34.036ZM85.7245 35.164C85.7245 35.3027 85.7672 35.4013 85.8525 35.46C85.9432 35.5187 86.0685 35.548 86.2285 35.548C86.3085 35.548 86.3912 35.5427 86.4765 35.532C86.5619 35.516 86.6365 35.4973 86.7005 35.476C86.7485 35.5347 86.7885 35.6013 86.8205 35.676C86.8579 35.7453 86.8765 35.8307 86.8765 35.932C86.8765 36.1347 86.7992 36.3 86.6445 36.428C86.4952 36.556 86.2285 36.62 85.8445 36.62C85.3752 36.62 85.0125 36.5133 84.7565 36.3C84.5059 36.0867 84.3805 35.74 84.3805 35.26V31.836C84.4392 31.82 84.5219 31.804 84.6285 31.788C84.7405 31.7667 84.8579 31.756 84.9805 31.756C85.2152 31.756 85.3965 31.7987 85.5245 31.884C85.6579 31.964 85.7245 32.1373 85.7245 32.404V32.916H86.7725C86.8045 32.9747 86.8339 33.0493 86.8605 33.14C86.8925 33.2253 86.9085 33.3213 86.9085 33.428C86.9085 33.6147 86.8659 33.7507 86.7805 33.836C86.7005 33.916 86.5912 33.956 86.4525 33.956H85.7245V35.164ZM87.9357 31.532C87.9357 31.3293 88.0023 31.1587 88.1357 31.02C88.2743 30.8813 88.4557 30.812 88.6797 30.812C88.9037 30.812 89.0823 30.8813 89.2157 31.02C89.3543 31.1587 89.4237 31.3293 89.4237 31.532C89.4237 31.7347 89.3543 31.9053 89.2157 32.044C89.0823 32.1827 88.9037 32.252 88.6797 32.252C88.4557 32.252 88.2743 32.1827 88.1357 32.044C88.0023 31.9053 87.9357 31.7347 87.9357 31.532ZM89.3597 36.492C89.301 36.5027 89.213 36.516 89.0957 36.532C88.9837 36.5533 88.869 36.564 88.7517 36.564C88.6343 36.564 88.5277 36.556 88.4317 36.54C88.341 36.524 88.2637 36.492 88.1997 36.444C88.1357 36.396 88.085 36.332 88.0477 36.252C88.0157 36.1667 87.9997 36.0573 87.9997 35.924V32.668C88.0583 32.6573 88.1437 32.644 88.2557 32.628C88.373 32.6067 88.4903 32.596 88.6077 32.596C88.725 32.596 88.829 32.604 88.9197 32.62C89.0157 32.636 89.0957 32.668 89.1597 32.716C89.2237 32.764 89.2717 32.8307 89.3037 32.916C89.341 32.996 89.3597 33.1027 89.3597 33.236V36.492ZM92.2895 35.636C92.3801 35.636 92.4788 35.628 92.5855 35.612C92.6975 35.5907 92.7801 35.564 92.8335 35.532V34.892L92.2575 34.94C92.1081 34.9507 91.9855 34.9827 91.8895 35.036C91.7935 35.0893 91.7455 35.1693 91.7455 35.276C91.7455 35.3827 91.7855 35.4707 91.8655 35.54C91.9508 35.604 92.0921 35.636 92.2895 35.636ZM92.2255 32.492C92.5135 32.492 92.7748 32.5213 93.0095 32.58C93.2495 32.6387 93.4521 32.7293 93.6175 32.852C93.7881 32.9693 93.9188 33.1213 94.0095 33.308C94.1001 33.4893 94.1455 33.7053 94.1455 33.956V35.748C94.1455 35.8867 94.1055 36.0013 94.0255 36.092C93.9508 36.1773 93.8601 36.252 93.7535 36.316C93.4068 36.524 92.9188 36.628 92.2895 36.628C92.0068 36.628 91.7508 36.6013 91.5215 36.548C91.2975 36.4947 91.1028 36.4147 90.9375 36.308C90.7775 36.2013 90.6521 36.0653 90.5615 35.9C90.4761 35.7347 90.4335 35.5427 90.4335 35.324C90.4335 34.956 90.5428 34.6733 90.7615 34.476C90.9801 34.2787 91.3188 34.156 91.7775 34.108L92.8255 33.996V33.94C92.8255 33.7853 92.7561 33.676 92.6175 33.612C92.4841 33.5427 92.2895 33.508 92.0335 33.508C91.8308 33.508 91.6335 33.5293 91.4415 33.572C91.2495 33.6147 91.0761 33.668 90.9215 33.732C90.8521 33.684 90.7935 33.612 90.7455 33.516C90.6975 33.4147 90.6735 33.3107 90.6735 33.204C90.6735 33.0653 90.7055 32.956 90.7695 32.876C90.8388 32.7907 90.9428 32.7187 91.0815 32.66C91.2361 32.6013 91.4175 32.5587 91.6255 32.532C91.8388 32.5053 92.0388 32.492 92.2255 32.492ZM96.761 36.492C96.7024 36.5027 96.6144 36.516 96.497 36.532C96.385 36.5533 96.2704 36.564 96.153 36.564C96.0357 36.564 95.929 36.556 95.833 36.54C95.7424 36.524 95.665 36.492 95.601 36.444C95.537 36.396 95.4864 36.332 95.449 36.252C95.417 36.1667 95.401 36.0573 95.401 35.924V31.284C95.4597 31.2733 95.545 31.26 95.657 31.244C95.7744 31.2227 95.8917 31.212 96.009 31.212C96.1264 31.212 96.2304 31.22 96.321 31.236C96.417 31.252 96.497 31.284 96.561 31.332C96.625 31.38 96.673 31.4467 96.705 31.532C96.7424 31.612 96.761 31.7187 96.761 31.852V36.492ZM51.0721 45.628C50.7574 45.628 50.4641 45.5853 50.1921 45.5C49.9254 45.4093 49.6908 45.276 49.4881 45.1C49.2908 44.924 49.1334 44.7027 49.0161 44.436C48.9041 44.1693 48.8481 43.8573 48.8481 43.5C48.8481 43.148 48.9041 42.8467 49.0161 42.596C49.1334 42.34 49.2854 42.132 49.4721 41.972C49.6588 41.8067 49.8721 41.6867 50.1121 41.612C50.3521 41.532 50.5974 41.492 50.8481 41.492C51.1308 41.492 51.3868 41.5347 51.6161 41.62C51.8508 41.7053 52.0508 41.8227 52.2161 41.972C52.3868 42.1213 52.5174 42.3 52.6081 42.508C52.7041 42.716 52.7521 42.9427 52.7521 43.188C52.7521 43.3693 52.7014 43.508 52.6001 43.604C52.4988 43.7 52.3574 43.7613 52.1761 43.788L50.2001 44.084C50.2588 44.26 50.3788 44.3933 50.5601 44.484C50.7414 44.5693 50.9494 44.612 51.1841 44.612C51.4028 44.612 51.6081 44.5853 51.8001 44.532C51.9974 44.4733 52.1574 44.4067 52.2801 44.332C52.3654 44.3853 52.4374 44.46 52.4961 44.556C52.5548 44.652 52.5841 44.7533 52.5841 44.86C52.5841 45.1 52.4721 45.2787 52.2481 45.396C52.0774 45.4867 51.8854 45.548 51.6721 45.58C51.4588 45.612 51.2588 45.628 51.0721 45.628ZM50.8481 42.484C50.7201 42.484 50.6081 42.5053 50.5121 42.548C50.4214 42.5907 50.3468 42.6467 50.2881 42.716C50.2294 42.78 50.1841 42.8547 50.1521 42.94C50.1254 43.02 50.1094 43.1027 50.1041 43.188L51.4721 42.964C51.4561 42.8573 51.3974 42.7507 51.2961 42.644C51.1948 42.5373 51.0454 42.484 50.8481 42.484ZM55.1907 45.492C55.1321 45.5027 55.0441 45.516 54.9267 45.532C54.8147 45.5533 54.7001 45.564 54.5827 45.564C54.4654 45.564 54.3587 45.556 54.2627 45.54C54.1721 45.524 54.0947 45.492 54.0307 45.444C53.9667 45.396 53.9161 45.332 53.8787 45.252C53.8467 45.1667 53.8307 45.0573 53.8307 44.924V40.284C53.8894 40.2733 53.9747 40.26 54.0867 40.244C54.2041 40.2227 54.3214 40.212 54.4387 40.212C54.5561 40.212 54.6601 40.22 54.7507 40.236C54.8467 40.252 54.9267 40.284 54.9907 40.332C55.0547 40.38 55.1027 40.4467 55.1347 40.532C55.1721 40.612 55.1907 40.7187 55.1907 40.852V45.492ZM58.5049 45.628C58.1902 45.628 57.8969 45.5853 57.6249 45.5C57.3582 45.4093 57.1236 45.276 56.9209 45.1C56.7236 44.924 56.5662 44.7027 56.4489 44.436C56.3369 44.1693 56.2809 43.8573 56.2809 43.5C56.2809 43.148 56.3369 42.8467 56.4489 42.596C56.5662 42.34 56.7182 42.132 56.9049 41.972C57.0916 41.8067 57.3049 41.6867 57.5449 41.612C57.7849 41.532 58.0302 41.492 58.2809 41.492C58.5636 41.492 58.8196 41.5347 59.0489 41.62C59.2836 41.7053 59.4836 41.8227 59.6489 41.972C59.8196 42.1213 59.9502 42.3 60.0409 42.508C60.1369 42.716 60.1849 42.9427 60.1849 43.188C60.1849 43.3693 60.1342 43.508 60.0329 43.604C59.9316 43.7 59.7902 43.7613 59.6089 43.788L57.6329 44.084C57.6916 44.26 57.8116 44.3933 57.9929 44.484C58.1742 44.5693 58.3822 44.612 58.6169 44.612C58.8356 44.612 59.0409 44.5853 59.2329 44.532C59.4302 44.4733 59.5902 44.4067 59.7129 44.332C59.7982 44.3853 59.8702 44.46 59.9289 44.556C59.9876 44.652 60.0169 44.7533 60.0169 44.86C60.0169 45.1 59.9049 45.2787 59.6809 45.396C59.5102 45.4867 59.3182 45.548 59.1049 45.58C58.8916 45.612 58.6916 45.628 58.5049 45.628ZM58.2809 42.484C58.1529 42.484 58.0409 42.5053 57.9449 42.548C57.8542 42.5907 57.7796 42.6467 57.7209 42.716C57.6622 42.78 57.6169 42.8547 57.5849 42.94C57.5582 43.02 57.5422 43.1027 57.5369 43.188L58.9049 42.964C58.8889 42.8573 58.8302 42.7507 58.7289 42.644C58.6276 42.5373 58.4782 42.484 58.2809 42.484ZM63.4315 42.564C63.2982 42.564 63.1702 42.5853 63.0475 42.628C62.9302 42.6707 62.8262 42.7347 62.7355 42.82C62.6502 42.9 62.5809 43.0013 62.5275 43.124C62.4742 43.2467 62.4475 43.3907 62.4475 43.556C62.4475 43.8867 62.5409 44.1347 62.7275 44.3C62.9195 44.4653 63.1515 44.548 63.4235 44.548C63.5835 44.548 63.7222 44.5293 63.8395 44.492C63.9569 44.4547 64.0609 44.4147 64.1515 44.372C64.2582 44.4467 64.3382 44.5293 64.3915 44.62C64.4449 44.7053 64.4715 44.8093 64.4715 44.932C64.4715 45.1507 64.3675 45.3213 64.1595 45.444C63.9515 45.5613 63.6635 45.62 63.2955 45.62C62.9595 45.62 62.6555 45.572 62.3835 45.476C62.1115 45.3747 61.8769 45.236 61.6795 45.06C61.4875 44.8787 61.3382 44.6627 61.2315 44.412C61.1249 44.1613 61.0715 43.884 61.0715 43.58C61.0715 43.228 61.1275 42.9213 61.2395 42.66C61.3569 42.3933 61.5142 42.1747 61.7115 42.004C61.9089 41.8333 62.1355 41.7053 62.3915 41.62C62.6529 41.5347 62.9275 41.492 63.2155 41.492C63.5995 41.492 63.8955 41.5613 64.1035 41.7C64.3115 41.8387 64.4155 42.0173 64.4155 42.236C64.4155 42.3373 64.3915 42.4333 64.3435 42.524C64.2955 42.6093 64.2395 42.684 64.1755 42.748C64.0849 42.7053 63.9755 42.6653 63.8475 42.628C63.7195 42.5853 63.5809 42.564 63.4315 42.564ZM66.9136 44.164C66.9136 44.3027 66.9563 44.4013 67.0416 44.46C67.1323 44.5187 67.2576 44.548 67.4176 44.548C67.4976 44.548 67.5803 44.5427 67.6656 44.532C67.7509 44.516 67.8256 44.4973 67.8896 44.476C67.9376 44.5347 67.9776 44.6013 68.0096 44.676C68.0469 44.7453 68.0656 44.8307 68.0656 44.932C68.0656 45.1347 67.9883 45.3 67.8336 45.428C67.6843 45.556 67.4176 45.62 67.0336 45.62C66.5643 45.62 66.2016 45.5133 65.9456 45.3C65.6949 45.0867 65.5696 44.74 65.5696 44.26V40.836C65.6283 40.82 65.7109 40.804 65.8176 40.788C65.9296 40.7667 66.0469 40.756 66.1696 40.756C66.4043 40.756 66.5856 40.7987 66.7136 40.884C66.8469 40.964 66.9136 41.1373 66.9136 41.404V41.916H67.9616C67.9936 41.9747 68.0229 42.0493 68.0496 42.14C68.0816 42.2253 68.0976 42.3213 68.0976 42.428C68.0976 42.6147 68.0549 42.7507 67.9696 42.836C67.8896 42.916 67.7803 42.956 67.6416 42.956H66.9136V44.164ZM69.1247 40.532C69.1247 40.3293 69.1914 40.1587 69.3247 40.02C69.4634 39.8813 69.6447 39.812 69.8687 39.812C70.0927 39.812 70.2714 39.8813 70.4047 40.02C70.5434 40.1587 70.6127 40.3293 70.6127 40.532C70.6127 40.7347 70.5434 40.9053 70.4047 41.044C70.2714 41.1827 70.0927 41.252 69.8687 41.252C69.6447 41.252 69.4634 41.1827 69.3247 41.044C69.1914 40.9053 69.1247 40.7347 69.1247 40.532ZM70.5487 45.492C70.4901 45.5027 70.4021 45.516 70.2847 45.532C70.1727 45.5533 70.0581 45.564 69.9407 45.564C69.8234 45.564 69.7167 45.556 69.6207 45.54C69.5301 45.524 69.4527 45.492 69.3887 45.444C69.3247 45.396 69.2741 45.332 69.2367 45.252C69.2047 45.1667 69.1887 45.0573 69.1887 44.924V41.668C69.2474 41.6573 69.3327 41.644 69.4447 41.628C69.5621 41.6067 69.6794 41.596 69.7967 41.596C69.9141 41.596 70.0181 41.604 70.1087 41.62C70.2047 41.636 70.2847 41.668 70.3487 41.716C70.4127 41.764 70.4607 41.8307 70.4927 41.916C70.5301 41.996 70.5487 42.1027 70.5487 42.236V45.492ZM75.8385 43.556C75.8385 43.8867 75.7879 44.1827 75.6865 44.444C75.5852 44.7 75.4412 44.916 75.2545 45.092C75.0732 45.268 74.8545 45.4013 74.5985 45.492C74.3425 45.5827 74.0572 45.628 73.7425 45.628C73.4279 45.628 73.1425 45.58 72.8865 45.484C72.6305 45.388 72.4092 45.252 72.2225 45.076C72.0412 44.8947 71.8999 44.676 71.7985 44.42C71.6972 44.164 71.6465 43.876 71.6465 43.556C71.6465 43.2413 71.6972 42.956 71.7985 42.7C71.8999 42.444 72.0412 42.228 72.2225 42.052C72.4092 41.8707 72.6305 41.732 72.8865 41.636C73.1425 41.54 73.4279 41.492 73.7425 41.492C74.0572 41.492 74.3425 41.5427 74.5985 41.644C74.8545 41.74 75.0732 41.8787 75.2545 42.06C75.4412 42.236 75.5852 42.452 75.6865 42.708C75.7879 42.964 75.8385 43.2467 75.8385 43.556ZM73.0385 43.556C73.0385 43.8813 73.0999 44.132 73.2225 44.308C73.3505 44.4787 73.5265 44.564 73.7505 44.564C73.9745 44.564 74.1452 44.476 74.2625 44.3C74.3852 44.124 74.4465 43.876 74.4465 43.556C74.4465 43.236 74.3852 42.9907 74.2625 42.82C74.1399 42.644 73.9665 42.556 73.7425 42.556C73.5185 42.556 73.3452 42.644 73.2225 42.82C73.0999 42.9907 73.0385 43.236 73.0385 43.556ZM79.366 43.036C79.366 42.8707 79.318 42.7507 79.222 42.676C79.1314 42.596 79.006 42.556 78.846 42.556C78.7394 42.556 78.6327 42.5693 78.526 42.596C78.4247 42.6227 78.3367 42.6627 78.262 42.716V45.492C78.2087 45.508 78.1234 45.524 78.006 45.54C77.894 45.556 77.7767 45.564 77.654 45.564C77.5367 45.564 77.43 45.556 77.334 45.54C77.2434 45.524 77.166 45.492 77.102 45.444C77.038 45.396 76.9874 45.332 76.95 45.252C76.918 45.1667 76.902 45.0573 76.902 44.924V42.524C76.902 42.38 76.9314 42.2627 76.99 42.172C77.054 42.0813 77.1394 41.9987 77.246 41.924C77.4274 41.796 77.654 41.692 77.926 41.612C78.2034 41.532 78.51 41.492 78.846 41.492C79.4487 41.492 79.9127 41.6253 80.238 41.892C80.5634 42.1533 80.726 42.5187 80.726 42.988V45.492C80.6727 45.508 80.5874 45.524 80.47 45.54C80.358 45.556 80.2407 45.564 80.118 45.564C80.0007 45.564 79.894 45.556 79.798 45.54C79.7074 45.524 79.63 45.492 79.566 45.444C79.502 45.396 79.4514 45.332 79.414 45.252C79.382 45.1667 79.366 45.0573 79.366 44.924V43.036Z" fill="#FEFBF3"/>
<path fill-rule="evenodd" clip-rule="evenodd" d="M18 13.5H11C9.89543 13.5 9 14.3954 9 15.5V43C9 44.1046 9.89543 45 11 45H41.2C42.3046 45 43.2 44.1046 43.2 43V15.5C43.2 14.3954 42.3046 13.5 41.2 13.5H34.2V15.25H35C35.5523 15.25 36 15.6977 36 16.25V16.875C36 17.4273 35.5523 17.875 35 17.875H17.2C16.6477 17.875 16.2 17.4273 16.2 16.875V16.25C16.2 15.6977 16.6477 15.25 17.2 15.25H18V13.5ZM32.3089 41.8338C32.3285 41.6187 32.3383 41.4253 32.306 41.2946C32.0921 40.4272 31.3509 39.9219 30.6208 39.4242L30.5666 39.3872C29.6209 38.7418 29.0974 38.1035 28.8878 36.9927C28.8676 36.8859 28.8516 36.778 28.8356 36.6703C28.7709 36.2341 28.7067 35.8013 28.3697 35.4603C28.3319 35.422 28.2923 35.3851 28.2527 35.3482C28.1576 35.2594 28.0624 35.1707 27.9922 35.0634C27.7917 34.7567 27.9596 34.322 28.1046 33.9467L28.1046 33.9467C28.1564 33.8125 28.2053 33.6859 28.2334 33.5755C28.3766 33.0125 28.4188 32.4268 28.461 31.842C28.5077 31.194 28.5544 30.5471 28.7383 29.9335C28.99 29.0938 29.5671 28.377 30.1276 27.6809L30.1276 27.6809C30.2732 27.5 30.4177 27.3205 30.5551 27.1406C31.4517 25.9666 32.2765 24.7452 33.0951 23.5212C33.449 22.992 33.7449 22.4994 33.9999 21.923L34.0415 21.8283C34.2287 21.4013 34.4381 20.9236 34.8618 20.6706C35.2603 20.4326 35.7054 20.3208 36.1517 20.2087C36.3961 20.1474 36.6409 20.0859 36.8786 20.0036C37.2493 19.8751 37.3443 19.802 37.5323 19.5009C37.5804 19.4238 37.6144 19.3414 37.6478 19.2604C37.7234 19.0769 37.796 18.9008 38.0224 18.8115C38.5316 18.6106 38.8852 18.9394 39.2293 19.2594C39.3764 19.3963 39.5219 19.5315 39.677 19.623C39.8564 19.7289 40.0674 19.8007 40.2795 19.8729C40.6793 20.0089 41.0831 20.1463 41.2871 20.5158C41.5681 21.0245 41.2749 21.1927 40.9492 21.3794C40.7497 21.4938 40.5382 21.6151 40.4388 21.8259C40.2225 22.2855 40.3481 22.8299 40.4608 23.3187L40.4608 23.3188C40.4807 23.4049 40.5002 23.4893 40.5173 23.5712C40.6317 24.1184 40.4333 24.5072 40.2039 24.9568L40.2039 24.9568C40.1416 25.079 40.077 25.2056 40.0157 25.3412C39.9469 25.4934 39.8775 25.6435 39.8086 25.7926C39.4554 26.5565 39.1159 27.291 38.9433 28.1294C38.8901 28.3876 38.8388 28.6464 38.7874 28.9054L38.7874 28.9055C38.5762 29.9703 38.3646 31.0366 38.0278 32.0665C37.5202 33.6199 37.0059 35.0051 36.1199 36.4164C35.902 36.7635 35.6346 37.0602 35.3668 37.3574L35.3668 37.3575C35.1212 37.6301 34.8752 37.9031 34.6665 38.216C34.1119 39.0473 33.6552 40.1667 33.6072 41.1567C33.6016 41.2725 33.604 41.4051 33.6066 41.546C33.619 42.219 33.6349 43.0838 32.7927 43.2374L32.7922 43.2375C32.1565 43.3532 32.2282 42.6412 32.2915 42.0124C32.2976 41.9518 32.3036 41.892 32.3089 41.8338Z" fill="#FEFBF3"/>
<path d="M57.3361 25.5H49.3748L49.3188 25.388C49.2877 25.3009 49.2721 24.8809 49.2721 24.128C49.2721 23.2382 49.8788 22.3204 51.0921 21.3747C52.1001 20.5471 52.8188 19.8596 53.2481 19.312C53.6774 18.7644 53.8921 18.2262 53.8921 17.6973C53.8921 17.3924 53.8237 17.1031 53.6868 16.8293C53.4441 16.3378 53.0832 16.092 52.6041 16.092C52.1997 16.092 51.8574 16.1356 51.5774 16.2227L51.1294 18.1453L49.4308 18.136L49.2908 15.9427C49.969 14.916 51.2663 14.4027 53.1828 14.4027C53.6183 14.4027 54.0228 14.4338 54.3961 14.496C54.7694 14.5582 55.1272 14.6671 55.4694 14.8227C55.8179 14.9782 56.1134 15.1742 56.3561 15.4107C56.5988 15.6471 56.7917 15.952 56.9348 16.3253C57.0779 16.6924 57.1494 17.1156 57.1494 17.5947C57.1494 17.9431 57.0934 18.276 56.9814 18.5933C56.8757 18.9044 56.7294 19.1813 56.5428 19.424C56.3623 19.6604 56.1445 19.8969 55.8894 20.1333C55.6343 20.3698 55.3668 20.5813 55.0868 20.768C54.813 20.9547 54.5174 21.1538 54.2001 21.3653C53.889 21.5769 53.5903 21.7791 53.3041 21.972C53.0241 22.1587 52.741 22.3733 52.4548 22.616C52.1748 22.8587 51.9352 23.1013 51.7361 23.344L57.3361 22.924V25.5ZM62.6583 21.272C62.6583 22.2862 62.7516 23.0018 62.9383 23.4187C63.125 23.8293 63.4205 24.0347 63.825 24.0347C64.1236 24.0347 64.3538 23.9662 64.5156 23.8293C64.6774 23.6862 64.805 23.3813 64.8983 22.9147C64.9916 22.4418 65.0383 21.7542 65.0383 20.852V18.6027C65.0383 16.8418 64.6338 15.9613 63.825 15.9613C63.4143 15.9613 63.1156 16.1791 62.929 16.6147C62.7485 17.0502 62.6583 17.8218 62.6583 18.9293V21.272ZM63.629 25.696C62.9072 25.696 62.2818 25.6058 61.753 25.4253C61.2303 25.2387 60.8072 24.9898 60.4836 24.6787C60.1601 24.3676 59.9018 23.9662 59.709 23.4747C59.5223 22.9831 59.3947 22.4698 59.3263 21.9347C59.2578 21.3996 59.2236 20.7773 59.2236 20.068C59.2236 19.3276 59.2672 18.6773 59.3543 18.1173C59.4414 17.5573 59.5938 17.0378 59.8116 16.5587C60.0294 16.0733 60.3187 15.6782 60.6796 15.3733C61.0405 15.0622 61.501 14.8196 62.061 14.6453C62.6272 14.4711 63.2898 14.384 64.049 14.384C64.7707 14.384 65.3961 14.4773 65.925 14.664C66.4601 14.8507 66.8863 15.1027 67.2036 15.42C67.5272 15.7373 67.7854 16.1449 67.9783 16.6427C68.1712 17.1404 68.3018 17.6569 68.3703 18.192C68.4387 18.7209 68.473 19.34 68.473 20.0493C68.473 20.7898 68.4294 21.44 68.3423 22C68.2552 22.56 68.0996 23.0796 67.8756 23.5587C67.6578 24.0378 67.3654 24.4298 66.9983 24.7347C66.6374 25.0396 66.1738 25.276 65.6076 25.444C65.0476 25.612 64.3881 25.696 63.629 25.696ZM78.58 25.5H70.6187L70.5627 25.388C70.5316 25.3009 70.516 24.8809 70.516 24.128C70.516 23.2382 71.1227 22.3204 72.336 21.3747C73.344 20.5471 74.0627 19.8596 74.492 19.312C74.9213 18.7644 75.136 18.2262 75.136 17.6973C75.136 17.3924 75.0676 17.1031 74.9307 16.8293C74.688 16.3378 74.3271 16.092 73.848 16.092C73.4436 16.092 73.1013 16.1356 72.8213 16.2227L72.3733 18.1453L70.6747 18.136L70.5347 15.9427C71.2129 14.916 72.5102 14.4027 74.4267 14.4027C74.8622 14.4027 75.2667 14.4338 75.64 14.496C76.0133 14.5582 76.3711 14.6671 76.7133 14.8227C77.0618 14.9782 77.3573 15.1742 77.6 15.4107C77.8427 15.6471 78.0356 15.952 78.1787 16.3253C78.3218 16.6924 78.3933 17.1156 78.3933 17.5947C78.3933 17.9431 78.3373 18.276 78.2253 18.5933C78.1196 18.9044 77.9733 19.1813 77.7867 19.424C77.6062 19.6604 77.3884 19.8969 77.1333 20.1333C76.8782 20.3698 76.6107 20.5813 76.3307 20.768C76.0569 20.9547 75.7613 21.1538 75.444 21.3653C75.1329 21.5769 74.8342 21.7791 74.548 21.972C74.268 22.1587 73.9849 22.3733 73.6987 22.616C73.4187 22.8587 73.1791 23.1013 72.98 23.344L78.58 22.924V25.5ZM83.9022 21.272C83.9022 22.2862 83.9955 23.0018 84.1822 23.4187C84.3689 23.8293 84.6644 24.0347 85.0689 24.0347C85.3675 24.0347 85.5977 23.9662 85.7595 23.8293C85.9213 23.6862 86.0489 23.3813 86.1422 22.9147C86.2355 22.4418 86.2822 21.7542 86.2822 20.852V18.6027C86.2822 16.8418 85.8777 15.9613 85.0689 15.9613C84.6582 15.9613 84.3595 16.1791 84.1729 16.6147C83.9924 17.0502 83.9022 17.8218 83.9022 18.9293V21.272ZM84.8729 25.696C84.1511 25.696 83.5257 25.6058 82.9969 25.4253C82.4742 25.2387 82.0511 24.9898 81.7275 24.6787C81.404 24.3676 81.1457 23.9662 80.9529 23.4747C80.7662 22.9831 80.6386 22.4698 80.5702 21.9347C80.5017 21.3996 80.4675 20.7773 80.4675 20.068C80.4675 19.3276 80.5111 18.6773 80.5982 18.1173C80.6853 17.5573 80.8377 17.0378 81.0555 16.5587C81.2733 16.0733 81.5626 15.6782 81.9235 15.3733C82.2844 15.0622 82.7449 14.8196 83.3049 14.6453C83.8711 14.4711 84.5337 14.384 85.2929 14.384C86.0146 14.384 86.64 14.4773 87.1689 14.664C87.704 14.8507 88.1302 15.1027 88.4475 15.42C88.7711 15.7373 89.0293 16.1449 89.2222 16.6427C89.4151 17.1404 89.5457 17.6569 89.6142 18.192C89.6826 18.7209 89.7169 19.34 89.7169 20.0493C89.7169 20.7898 89.6733 21.44 89.5862 22C89.4991 22.56 89.3435 23.0796 89.1195 23.5587C88.9017 24.0378 88.6093 24.4298 88.2422 24.7347C87.8813 25.0396 87.4177 25.276 86.8515 25.444C86.2915 25.612 85.632 25.696 84.8729 25.696Z" fill="#FEFBF3"/>
</svg>
