<svg width="82" height="65" viewBox="0 0 82 65" fill="none" xmlns="http://www.w3.org/2000/svg">
<g filter="url(#filter0_d_432_2635)">
<g filter="url(#filter1_d_432_2635)">
<path d="M8.216 38.16H5.768V47.856H8.216V38.16ZM10.256 36V50.016H5.768V51.888H3.728V36H10.256ZM13.544 41.856V38.808H10.904V36.72H13.544V34.152H15.656V36.72H17.288V38.808H15.656V41.856H13.544ZM16.664 44.832H13.664V47.784H16.664V44.832ZM21.848 47.784V44.832H18.728V47.784H21.848ZM18.728 52.752H21.848V49.704H18.728V52.752ZM13.664 52.752H16.664V49.704H13.664V52.752ZM11.6 55.896V42.864H24.008V55.752H21.848V54.744H13.664V55.896H11.6ZM21.824 36.768H24.992V38.808H21.824V41.832H19.688V38.808H18.08V36.768H19.688V34.152H21.824V36.768ZM44.336 40.2V38.016H40.928V36.12H44.336V33.888H46.592V36.12H50.72V38.016H46.592V40.2H44.336ZM34.424 40.248V38.04H30.176V36.144H34.424V33.888H36.656V36.144H39.8V38.04H36.656V40.248H34.424ZM34.328 46.992H39.056C39.104 46.584 39.128 46.2 39.128 45.792V43.176H34.328V46.992ZM46.52 43.176H41.408V45.816C41.408 46.224 41.384 46.584 41.36 46.992H46.52V43.176ZM51.152 49.056H40.928C39.992 51.888 37.352 54.336 30.656 55.896C30.416 55.44 29.816 54.528 29.312 54.072C35.096 52.872 37.496 51.072 38.504 49.056H29.648V46.992H32.192V41.232H39.128V39.048H41.408V41.232H48.776V46.992H51.152V49.056ZM40.76 51L41.816 49.416C44.912 50.64 49.16 52.632 51.248 54.072L50.12 55.896C48.08 54.456 43.904 52.32 40.76 51ZM71.408 40.152H62.096C63.248 42.984 64.856 45.456 66.896 47.568C68.84 45.552 70.328 43.104 71.408 40.152ZM77.624 40.152H73.904C72.632 43.776 70.856 46.704 68.6 49.104C71.168 51.192 74.288 52.752 77.984 53.664C77.48 54.144 76.832 55.08 76.472 55.728C72.656 54.696 69.464 52.992 66.872 50.736C64.208 52.992 60.944 54.672 57.056 55.872C56.792 55.296 56.12 54.264 55.664 53.736C59.528 52.704 62.672 51.216 65.216 49.128C62.888 46.656 61.112 43.656 59.768 40.152H56.072V37.992H66.464C66.176 37.008 65.504 35.496 64.856 34.368L67.208 33.672C67.904 34.8 68.672 36.336 68.984 37.32L66.848 37.992H77.624V40.152Z" fill="#FEFBF3"/>
</g>
<g filter="url(#filter2_d_432_2635)">
<mask id="path-2-outside-1_432_2635" maskUnits="userSpaceOnUse" x="4" y="3" width="35" height="20" fill="black">
<rect fill="white" x="4" y="3" width="35" height="20"/>
<path d="M19.6 16.842C19.6 17.5167 19.4973 18.1327 19.292 18.69C19.1013 19.2327 18.7567 19.702 18.258 20.098C17.7593 20.4793 17.0847 20.78 16.234 21C15.3833 21.22 14.3053 21.33 13 21.33C11.6947 21.33 10.6167 21.22 9.766 21C8.91533 20.78 8.24067 20.4793 7.742 20.098C7.24333 19.702 6.89133 19.2327 6.686 18.69C6.49533 18.1327 6.4 17.5167 6.4 16.842V9.34C6.4 8.66533 6.49533 8.05667 6.686 7.514C6.89133 6.95667 7.24333 6.48 7.742 6.084C8.24067 5.688 8.91533 5.38 9.766 5.16C10.6167 4.94 11.6947 4.83 13 4.83C14.3053 4.83 15.3833 4.94 16.234 5.16C17.0847 5.38 17.7593 5.688 18.258 6.084C18.7567 6.48 19.1013 6.95667 19.292 7.514C19.4973 8.05667 19.6 8.66533 19.6 9.34V16.842ZM11.372 16.05C11.372 16.3433 11.4747 16.5927 11.68 16.798C11.9 16.9887 12.34 17.084 13 17.084C13.66 17.084 14.1 16.9887 14.32 16.798C14.54 16.5927 14.65 16.3433 14.65 16.05V10.132C14.65 9.85333 14.54 9.61867 14.32 9.428C14.1 9.22267 13.66 9.12 13 9.12C12.34 9.12 11.9 9.22267 11.68 9.428C11.4747 9.61867 11.372 9.85333 11.372 10.132V16.05ZM36.144 21H25.672C25.3933 21 25.188 20.9413 25.056 20.824C24.9387 20.692 24.88 20.4867 24.88 20.208V16.424C24.88 15.5733 24.9607 14.8767 25.122 14.334C25.298 13.7767 25.54 13.322 25.848 12.97C26.156 12.618 26.5227 12.3393 26.948 12.134C27.3733 11.9287 27.8353 11.7527 28.334 11.606L31.282 10.682C31.5167 10.6233 31.6707 10.5353 31.744 10.418C31.832 10.3007 31.876 10.1247 31.876 9.89C31.876 9.67 31.832 9.52333 31.744 9.45C31.656 9.362 31.502 9.318 31.282 9.318H26.508C26.2293 9.318 26.024 9.25933 25.892 9.142C25.7747 9.01 25.716 8.80467 25.716 8.526V5.952C25.716 5.67333 25.7747 5.47533 25.892 5.358C26.024 5.226 26.2293 5.16 26.508 5.16H32.998C34.2447 5.16 35.198 5.47533 35.858 6.106C36.5327 6.722 36.87 7.624 36.87 8.812V10.88C36.87 11.98 36.562 12.8233 35.946 13.41C35.33 13.9967 34.494 14.4513 33.438 14.774L30.446 15.72C30.226 15.7787 30.072 15.8447 29.984 15.918C29.9107 15.9913 29.874 16.1453 29.874 16.38V16.842H36.144C36.4227 16.842 36.6207 16.908 36.738 17.04C36.87 17.1573 36.936 17.3553 36.936 17.634V20.208C36.936 20.4867 36.87 20.692 36.738 20.824C36.6207 20.9413 36.4227 21 36.144 21Z"/>
</mask>
<path d="M19.292 18.69L17.7907 18.1369L17.7865 18.1482L17.7825 18.1596L19.292 18.69ZM18.258 20.098L19.2299 21.369L19.2415 21.3601L19.253 21.351L18.258 20.098ZM16.234 21L15.8334 19.451L15.8334 19.451L16.234 21ZM7.742 20.098L6.74699 21.351L6.75845 21.3601L6.77008 21.369L7.742 20.098ZM6.686 18.69L5.17214 19.2079L5.18045 19.2322L5.18954 19.2562L6.686 18.69ZM6.686 7.514L5.18465 6.96087L5.18047 6.97222L5.17646 6.98362L6.686 7.514ZM7.742 6.084L6.74699 4.83102L6.74699 4.83102L7.742 6.084ZM16.234 5.16L15.8334 6.70903L16.234 5.16ZM18.258 6.084L17.263 7.33698L17.263 7.33698L18.258 6.084ZM19.292 7.514L17.7781 8.0319L17.7865 8.0562L17.7955 8.08023L19.292 7.514ZM11.68 16.798L10.5486 17.9294L10.589 17.9697L10.6321 18.0071L11.68 16.798ZM14.32 16.798L15.3679 18.0071L15.3902 17.9878L15.4117 17.9677L14.32 16.798ZM14.32 9.428L13.2283 10.5977L13.2498 10.6178L13.2721 10.6371L14.32 9.428ZM11.68 9.428L12.7687 10.6005L12.7717 10.5977L11.68 9.428ZM18 16.842C18 17.3533 17.9225 17.779 17.7907 18.1369L20.7934 19.2431C21.0722 18.4863 21.2 17.68 21.2 16.842H18ZM17.7825 18.1596C17.7023 18.3878 17.5516 18.6158 17.263 18.845L19.253 21.351C19.9617 20.7882 20.5004 20.0775 20.8015 19.2204L17.7825 18.1596ZM17.2861 18.827C17.0108 19.0375 16.5539 19.2646 15.8334 19.451L16.6346 22.549C17.6154 22.2954 18.5079 21.9211 19.2299 21.369L17.2861 18.827ZM15.8334 19.451C15.1602 19.6251 14.2288 19.73 13 19.73V22.93C14.3818 22.93 15.6064 22.8149 16.6346 22.549L15.8334 19.451ZM13 19.73C11.7712 19.73 10.8398 19.6251 10.1666 19.451L9.36539 22.549C10.3936 22.8149 11.6182 22.93 13 22.93V19.73ZM10.1666 19.451C9.44608 19.2646 8.9892 19.0375 8.71392 18.827L6.77008 21.369C7.49213 21.9211 8.38459 22.2954 9.36539 22.549L10.1666 19.451ZM8.73701 18.845C8.44166 18.6105 8.27585 18.3706 8.18246 18.1238L5.18954 19.2562C5.50682 20.0947 6.045 20.7935 6.74699 21.351L8.73701 18.845ZM8.19986 18.1721C8.07385 17.8038 8 17.3657 8 16.842H4.8C4.8 17.6677 4.91682 18.4616 5.17214 19.2079L8.19986 18.1721ZM8 16.842V9.34H4.8V16.842H8ZM8 9.34C8 8.81542 8.0741 8.39001 8.19554 8.04438L5.17646 6.98362C4.91657 7.72332 4.8 8.51525 4.8 9.34H8ZM8.18735 8.06713C8.28392 7.80501 8.45088 7.5642 8.73701 7.33698L6.74699 4.83102C6.03579 5.3958 5.49875 6.10832 5.18465 6.96087L8.18735 8.06713ZM8.73701 7.33698C9.00725 7.12238 9.45546 6.89295 10.1666 6.70903L9.36539 3.61096C8.37521 3.86704 7.47408 4.25362 6.74699 4.83102L8.73701 7.33698ZM10.1666 6.70903C10.8398 6.53495 11.7712 6.43 13 6.43V3.23C11.6182 3.23 10.3936 3.34505 9.36539 3.61096L10.1666 6.70903ZM13 6.43C14.2288 6.43 15.1602 6.53495 15.8334 6.70903L16.6346 3.61096C15.6064 3.34505 14.3818 3.23 13 3.23V6.43ZM15.8334 6.70903C16.5445 6.89295 16.9928 7.12238 17.263 7.33698L19.253 4.83102C18.5259 4.25362 17.6248 3.86704 16.6346 3.61096L15.8334 6.70903ZM17.263 7.33698C17.5422 7.5587 17.6946 7.7877 17.7781 8.0319L20.8059 6.9961C20.5081 6.12563 19.9711 5.4013 19.253 4.83102L17.263 7.33698ZM17.7955 8.08023C17.9222 8.4151 18 8.82781 18 9.34H21.2C21.2 8.50285 21.0724 7.69823 20.7885 6.94777L17.7955 8.08023ZM18 9.34V16.842H21.2V9.34H18ZM9.772 16.05C9.772 16.7628 10.0398 17.4206 10.5486 17.9294L12.8114 15.6666C12.8465 15.7017 12.8934 15.7625 12.9285 15.8478C12.9635 15.9328 12.972 16.0062 12.972 16.05H9.772ZM10.6321 18.0071C11.0264 18.3488 11.4844 18.5 11.8362 18.5762C12.2059 18.6563 12.6036 18.684 13 18.684V15.484C12.7364 15.484 12.5841 15.464 12.5138 15.4488C12.4816 15.4418 12.4888 15.4405 12.5224 15.455C12.5558 15.4695 12.6346 15.5081 12.7279 15.5889L10.6321 18.0071ZM13 18.684C13.3964 18.684 13.7941 18.6563 14.1638 18.5762C14.5156 18.5 14.9736 18.3488 15.3679 18.0071L13.2721 15.5889C13.3654 15.5081 13.4442 15.4695 13.4776 15.455C13.5112 15.4405 13.5184 15.4418 13.4862 15.4488C13.4159 15.464 13.2636 15.484 13 15.484V18.684ZM15.4117 17.9677C15.9464 17.4686 16.25 16.7997 16.25 16.05H13.05C13.05 15.9915 13.0622 15.9052 13.1036 15.8112C13.1447 15.7181 13.1967 15.6578 13.2283 15.6283L15.4117 17.9677ZM16.25 16.05V10.132H13.05V16.05H16.25ZM16.25 10.132C16.25 9.36615 15.9207 8.69796 15.3679 8.2189L13.2721 10.6371C13.2338 10.6039 13.1699 10.5352 13.1188 10.4261C13.0668 10.3152 13.05 10.2094 13.05 10.132H16.25ZM15.4117 8.25831C15.0195 7.89228 14.5547 7.72428 14.1886 7.63885C13.8085 7.55018 13.4018 7.52 13 7.52V10.72C13.1246 10.72 13.2254 10.7249 13.3051 10.7323C13.3855 10.7398 13.4357 10.7491 13.4614 10.7551C13.4882 10.7614 13.4755 10.7611 13.4371 10.7431C13.3983 10.725 13.3187 10.6821 13.2283 10.5977L15.4117 8.25831ZM13 7.52C12.5982 7.52 12.1915 7.55018 11.8114 7.63885C11.4453 7.72428 10.9805 7.89228 10.5883 8.25831L12.7717 10.5977C12.6813 10.6821 12.6017 10.725 12.5629 10.7431C12.5245 10.7611 12.5118 10.7614 12.5386 10.7551C12.5643 10.7491 12.6145 10.7398 12.6949 10.7323C12.7746 10.7249 12.8754 10.72 13 10.72V7.52ZM10.5913 8.25553C10.062 8.74703 9.772 9.40563 9.772 10.132H12.972C12.972 10.1938 12.9595 10.2862 12.9149 10.3883C12.8703 10.4902 12.8116 10.5606 12.7687 10.6005L10.5913 8.25553ZM9.772 10.132V16.05H12.972V10.132H9.772ZM25.056 20.824L23.8601 21.887L23.9227 21.9573L23.993 22.0199L25.056 20.824ZM25.122 14.334L23.5963 13.8522L23.5922 13.8651L23.5883 13.878L25.122 14.334ZM25.848 12.97L27.0521 14.0236L27.0521 14.0236L25.848 12.97ZM28.334 11.606L28.7855 13.141L28.799 13.137L28.8125 13.1328L28.334 11.606ZM31.282 10.682L30.8939 9.12977L30.8483 9.14118L30.8035 9.15524L31.282 10.682ZM31.744 10.418L30.464 9.458L30.4232 9.51237L30.3872 9.57L31.744 10.418ZM31.744 9.45L30.6126 10.5814L30.6639 10.6327L30.7197 10.6792L31.744 9.45ZM25.892 9.142L24.6961 10.205L24.7587 10.2753L24.829 10.3379L25.892 9.142ZM25.892 5.358L24.7606 4.22663L24.7606 4.22663L25.892 5.358ZM35.858 6.106L34.7526 7.26278L34.7658 7.27533L34.7792 7.28758L35.858 6.106ZM35.946 13.41L34.8426 12.2514L35.946 13.41ZM33.438 14.774L32.9705 13.2438L32.963 13.2461L32.9557 13.2484L33.438 14.774ZM30.446 15.72L30.8583 17.266L30.8935 17.2566L30.9283 17.2456L30.446 15.72ZM29.984 15.918L28.9597 14.6888L28.9039 14.7353L28.8526 14.7866L29.984 15.918ZM29.874 16.842H28.274V18.442H29.874V16.842ZM36.738 17.04L35.5421 18.103L35.6047 18.1733L35.675 18.2359L36.738 17.04ZM36.738 20.824L37.8694 21.9554L37.8694 21.9554L36.738 20.824ZM36.144 19.4H25.672V22.6H36.144V19.4ZM25.672 19.4C25.6388 19.4 25.6724 19.3958 25.7486 19.4176C25.8292 19.4406 25.9719 19.4974 26.119 19.6281L23.993 22.0199C24.5466 22.5119 25.217 22.6 25.672 22.6V19.4ZM26.2519 19.761C26.3826 19.9081 26.4394 20.0508 26.4624 20.1314C26.4842 20.2076 26.48 20.2412 26.48 20.208H23.28C23.28 20.663 23.3681 21.3334 23.8601 21.887L26.2519 19.761ZM26.48 20.208V16.424H23.28V20.208H26.48ZM26.48 16.424C26.48 15.6584 26.5545 15.1303 26.6557 14.79L23.5883 13.878C23.3669 14.623 23.28 15.4882 23.28 16.424H26.48ZM26.6477 14.8158C26.7733 14.4183 26.9212 14.1733 27.0521 14.0236L24.6439 11.9164C24.1588 12.4707 23.8227 13.1351 23.5963 13.8522L26.6477 14.8158ZM27.0521 14.0236C27.217 13.8352 27.4101 13.6876 27.6436 13.5749L26.2524 10.6931C25.6352 10.9911 25.095 11.4008 24.6439 11.9164L27.0521 14.0236ZM27.6436 13.5749C27.9829 13.4111 28.3624 13.2654 28.7855 13.141L27.8825 10.071C27.3083 10.2399 26.7638 10.4462 26.2524 10.6931L27.6436 13.5749ZM28.8125 13.1328L31.7605 12.2088L30.8035 9.15524L27.8555 10.0792L28.8125 13.1328ZM31.6701 12.2342C32.0298 12.1443 32.6928 11.9188 33.1008 11.266L30.3872 9.57C30.5246 9.35016 30.6902 9.23393 30.7797 9.18281C30.8665 9.13322 30.9169 9.12402 30.8939 9.12977L31.6701 12.2342ZM33.024 11.378C33.4113 10.8616 33.476 10.2785 33.476 9.89H30.276C30.276 9.91254 30.2734 9.8796 30.2908 9.80994C30.3086 9.7386 30.3536 9.6052 30.464 9.458L33.024 11.378ZM33.476 9.89C33.476 9.59314 33.444 8.7839 32.7683 8.22085L30.7197 10.6792C30.4537 10.4574 30.349 10.2031 30.3105 10.0748C30.2729 9.94949 30.276 9.87394 30.276 9.89H33.476ZM32.8754 8.31863C32.3267 7.76995 31.6263 7.718 31.282 7.718V10.918C31.2945 10.918 31.231 10.9203 31.1229 10.8894C31.0117 10.8576 30.8084 10.7771 30.6126 10.5814L32.8754 8.31863ZM31.282 7.718H26.508V10.918H31.282V7.718ZM26.508 7.718C26.4748 7.718 26.5084 7.71381 26.5846 7.73556C26.6652 7.75861 26.8079 7.81539 26.955 7.94615L24.829 10.3379C25.3825 10.8299 26.053 10.918 26.508 10.918V7.718ZM27.0879 8.07902C27.2186 8.22611 27.2754 8.36878 27.2984 8.44945C27.3202 8.52556 27.316 8.55921 27.316 8.526H24.116C24.116 8.98103 24.2041 9.65145 24.6961 10.205L27.0879 8.07902ZM27.316 8.526V5.952H24.116V8.526H27.316ZM27.316 5.952C27.316 5.91662 27.3207 5.95923 27.2941 6.04904C27.2659 6.14415 27.1939 6.31881 27.0234 6.48937L24.7606 4.22663C24.1943 4.79301 24.116 5.52067 24.116 5.952H27.316ZM27.0234 6.48937C26.7352 6.77753 26.4466 6.76 26.508 6.76V3.56C26.012 3.56 25.3128 3.67447 24.7606 4.22663L27.0234 6.48937ZM26.508 6.76H32.998V3.56H26.508V6.76ZM32.998 6.76C33.9861 6.76 34.4852 7.00723 34.7526 7.26278L36.9634 4.94921C35.9108 3.94344 34.5033 3.56 32.998 3.56V6.76ZM34.7792 7.28758C35.0293 7.51593 35.27 7.93077 35.27 8.812H38.47C38.47 7.31722 38.0361 5.92807 36.9368 4.92442L34.7792 7.28758ZM35.27 8.812V10.88H38.47V8.812H35.27ZM35.27 10.88C35.27 11.6772 35.0554 12.0487 34.8426 12.2514L37.0494 14.5686C38.0686 13.598 38.47 12.2828 38.47 10.88H35.27ZM34.8426 12.2514C34.4523 12.6231 33.8569 12.973 32.9705 13.2438L33.9056 16.3042C35.1311 15.9297 36.2077 15.3702 37.0494 14.5686L34.8426 12.2514ZM32.9557 13.2484L29.9637 14.1944L30.9283 17.2456L33.9203 16.2996L32.9557 13.2484ZM30.0337 14.174C29.768 14.2449 29.3282 14.3818 28.9597 14.6888L31.0083 17.1472C30.9463 17.1988 30.8936 17.232 30.8607 17.251C30.8272 17.2703 30.8039 17.2806 30.7958 17.2841C30.782 17.29 30.7982 17.282 30.8583 17.266L30.0337 14.174ZM28.8526 14.7866C28.5239 15.1154 28.3985 15.4931 28.345 15.7179C28.2875 15.9593 28.274 16.1916 28.274 16.38H31.474C31.474 16.3337 31.4788 16.3717 31.458 16.4591C31.4411 16.5299 31.3708 16.794 31.1154 17.0494L28.8526 14.7866ZM28.274 16.38V16.842H31.474V16.38H28.274ZM29.874 18.442H36.144V15.242H29.874V18.442ZM36.144 18.442C36.1653 18.442 36.104 18.4455 35.9955 18.4094C35.8773 18.37 35.7009 18.2816 35.5421 18.103L37.9339 15.977C37.3747 15.3479 36.6193 15.242 36.144 15.242V18.442ZM35.675 18.2359C35.4964 18.0771 35.408 17.9007 35.3686 17.7825C35.3325 17.674 35.336 17.6127 35.336 17.634H38.536C38.536 17.1587 38.4301 16.4033 37.801 15.8441L35.675 18.2359ZM35.336 17.634V20.208H38.536V17.634H35.336ZM35.336 20.208C35.336 20.2694 35.3185 19.9808 35.6066 19.6926L37.8694 21.9554C38.4215 21.4032 38.536 20.704 38.536 20.208H35.336ZM35.6066 19.6926C35.7772 19.5221 35.9519 19.4501 36.047 19.4219C36.1368 19.3953 36.1794 19.4 36.144 19.4V22.6C36.5753 22.6 37.303 22.5217 37.8694 21.9554L35.6066 19.6926Z" fill="#FEFBF3" mask="url(#path-2-outside-1_432_2635)"/>
</g>
</g>
<defs>
<filter id="filter0_d_432_2635" x="0.728027" y="4.83008" width="80.2559" height="60.0659" filterUnits="userSpaceOnUse" color-interpolation-filters="sRGB">
<feFlood flood-opacity="0" result="BackgroundImageFix"/>
<feColorMatrix in="SourceAlpha" type="matrix" values="0 0 0 0 0 0 0 0 0 0 0 0 0 0 0 0 0 0 127 0" result="hardAlpha"/>
<feOffset dy="6"/>
<feGaussianBlur stdDeviation="1.5"/>
<feComposite in2="hardAlpha" operator="out"/>
<feColorMatrix type="matrix" values="0 0 0 0 0 0 0 0 0 0 0 0 0 0 0 0 0 0 0.25 0"/>
<feBlend mode="normal" in2="BackgroundImageFix" result="effect1_dropShadow_432_2635"/>
<feBlend mode="normal" in="SourceGraphic" in2="effect1_dropShadow_432_2635" result="shape"/>
</filter>
<filter id="filter1_d_432_2635" x="3.72803" y="33.6721" width="78.2559" height="26.2239" filterUnits="userSpaceOnUse" color-interpolation-filters="sRGB">
<feFlood flood-opacity="0" result="BackgroundImageFix"/>
<feColorMatrix in="SourceAlpha" type="matrix" values="0 0 0 0 0 0 0 0 0 0 0 0 0 0 0 0 0 0 127 0" result="hardAlpha"/>
<feOffset dx="2" dy="2"/>
<feGaussianBlur stdDeviation="1"/>
<feComposite in2="hardAlpha" operator="out"/>
<feColorMatrix type="matrix" values="0 0 0 0 0.0527083 0 0 0 0 0.145283 0 0 0 0 0.383333 0 0 0 0.8 0"/>
<feBlend mode="normal" in2="BackgroundImageFix" result="effect1_dropShadow_432_2635"/>
<feBlend mode="normal" in="SourceGraphic" in2="effect1_dropShadow_432_2635" result="shape"/>
</filter>
<filter id="filter2_d_432_2635" x="6.3999" y="4.83008" width="34.5361" height="20.5" filterUnits="userSpaceOnUse" color-interpolation-filters="sRGB">
<feFlood flood-opacity="0" result="BackgroundImageFix"/>
<feColorMatrix in="SourceAlpha" type="matrix" values="0 0 0 0 0 0 0 0 0 0 0 0 0 0 0 0 0 0 127 0" result="hardAlpha"/>
<feOffset dx="2" dy="2"/>
<feGaussianBlur stdDeviation="1"/>
<feComposite in2="hardAlpha" operator="out"/>
<feColorMatrix type="matrix" values="0 0 0 0 0.0527083 0 0 0 0 0.145283 0 0 0 0 0.383333 0 0 0 1 0"/>
<feBlend mode="normal" in2="BackgroundImageFix" result="effect1_dropShadow_432_2635"/>
<feBlend mode="normal" in="SourceGraphic" in2="effect1_dropShadow_432_2635" result="shape"/>
</filter>
</defs>
</svg>
